<?xml version="1.0" standalone="no"?>
<!DOCTYPE svg PUBLIC "-//W3C//DTD SVG 1.1//EN" "http://www.w3.org/Graphics/SVG/1.1/DTD/svg11.dtd">
<svg xmlns="http://www.w3.org/2000/svg">
<metadata>Generated by Fontastic.me</metadata>
<defs>
<font id="untitled-font-1" horiz-adv-x="512">
<font-face font-family="untitled-font-1" units-per-em="512" ascent="480" descent="-32"/>
<missing-glyph horiz-adv-x="512" />

<glyph glyph-name="4estrelas" unicode="&#97;" d="M343 326l61 31 61-31-11 68 48 47-68 10-30 61-30-61-70-10 50-48z m-231 186l-30-61-68-10 50-48-11-69 61 32 61-32-11 69 46 48-68 10z m30-381l-30 61-30-61-68-9 50-48-11-68 61 31 61-31-11 68 49 48z m292 0l-30 61-30-61-68-10 50-48-12-69 61 32 61-32-11 69 50 48z"/>
<glyph glyph-name="360" unicode="&#98;" d="M77 321c5 2 9 3 14 6 4 2 8 5 11 9 3 3 6 8 7 12 2 5 3 10 3 16 0 8-2 14-4 20-3 6-7 10-11 15-4 3-9 5-16 8-6 2-12 3-19 3-7 0-14-1-20-3-7-3-13-6-18-11-4-3-9-8-12-14-3-7-5-13-6-21l6-1c0 0 1 0 2 0 2 0 4 1 4 4 2 5 3 10 6 15 2 4 5 7 9 11 4 3 8 5 12 6 5 2 11 3 16 3 6 0 11 0 15-2 5-1 9-3 13-6 3-3 6-8 8-12 2-5 3-10 3-17 0-6-1-11-3-15-2-5-5-9-8-12-4-3-9-6-15-8-6-2-13-3-21-3l0-9c10 0 19 0 25-3 7-2 13-4 16-8 5-3 8-7 9-12 2-5 3-10 3-16 0-4-1-9-3-14-2-5-5-10-9-13-3-4-8-8-14-10-6-2-13-3-21-3-6 0-10 0-14 1-5 1-8 3-11 4-3 3-6 5-8 7-3 2-5 5-6 7-2 2-3 5-4 8-1 2-1 4-2 5l-2 3c0 1 0 2-2 2 0 1-1 1-3 1-1 0-2 0-3-1l-4-2c1-5 4-11 6-16 2-6 6-11 10-15 4-4 10-8 17-11 6-3 15-4 26-4 8 0 16 1 22 3 7 2 13 6 18 11 6 5 10 10 13 16 3 7 4 13 4 21 0 11-3 21-10 29-6 8-15 13-29 16z m172-80c6 5 10 11 13 18 3 7 4 15 4 23 0 8-1 15-4 22-3 6-7 12-11 16-5 5-10 8-17 11-7 3-14 4-21 4-8 0-16-1-23-4-6-3-13-8-17-13 1 3 3 6 5 9 3 3 5 7 8 9l54 71-11 0c-3 0-5-1-7-3l-49-67c-8-11-14-21-18-30-4-9-5-17-5-24 0-9 1-17 4-25 3-7 7-14 12-19 5-5 11-9 18-12 8-2 15-4 24-4 9 0 17 2 24 4 6 4 12 9 17 14z m-43-6c-6 0-13 1-19 3-6 3-10 6-14 10-3 4-6 9-8 15-3 5-3 11-3 19 0 5 0 11 3 16 2 5 5 10 9 14 4 4 9 7 15 10 6 3 13 3 21 3 7 0 12 0 18-2 5-3 10-6 14-9 4-4 7-9 10-14 2-5 3-12 3-19 0-7-2-13-4-18-2-6-5-11-10-15-4-4-9-7-15-10-6-2-12-3-20-3z m103 12c6-7 12-13 20-17 8-3 16-5 25-5 9 0 18 2 26 5 8 4 14 10 20 17 6 8 10 18 14 29 4 11 5 25 5 41 0 15-1 29-5 41-4 11-8 21-14 28-5 9-12 14-20 18-8 3-16 6-25 6-9 0-18-3-25-6-8-4-15-9-21-17-6-8-11-17-14-29-4-11-5-25-5-41 0-15 1-29 5-41 3-12 8-21 14-29z m-3 108c3 10 7 19 12 25 5 7 10 12 17 15 7 3 13 4 20 4 7 0 14-1 19-4 7-3 12-8 17-15 5-6 9-15 11-25 2-10 5-23 5-38 0-14-2-27-5-38-3-11-6-19-11-25-4-7-10-12-17-15-6-3-13-4-19-4-8 0-14 1-20 4-6 3-12 8-17 15-5 6-9 15-12 25-2 11-4 23-4 38 0 15 2 28 4 38z m144-12c3-4 7-6 12-8 4-1 9-3 15-3 6 0 11 1 15 3 5 2 8 4 12 8 4 4 6 7 7 12 2 5 2 11 2 17 0 5 0 11-2 16-1 4-4 8-7 12-3 4-7 6-12 8-4 2-9 2-15 2-6 0-11-1-15-3-5-2-9-5-12-8-3-4-6-8-7-13-2-4-3-10-3-16 0-6 1-11 3-16 1-4 4-8 7-11z m6 51c5 5 12 8 21 8 9 0 15-3 20-8 4-6 6-13 6-22 0-10-2-18-6-23-5-6-11-8-20-8-9 0-16 3-21 8-4 6-6 13-6 23 0 8 2 16 6 22z m57-194c-2 3-5 7-8 11-1 1-2 2-3 3 0 0 0 0 0 1l0 0-1 1c-5 6-10 13-15 20-1 2-3 2-4 2-4 0-9-2-15-5-3-2-5-3-8-5-3-1-4-1-6-2-7-3-15-6-16-9 0-1-1-2 0-4 1-1 3-1 3-1 5 0 9 2 13 5 6 3 10 6 16 6 0 0 1 0 1 0l5 0 0-6c-7-36-25-57-42-73-5-6-12-10-18-13-19-10-38-19-64-19-3 0-6 0-10 1-1-1-2-1-3-1-1 0-2 0-2 0-1 0-2 0-4 0-4 0-9 1-13 3-2 0-4 1-5 2-45 12-78 44-92 86 0 3-1 5-1 8-2 6-3 14-6 14-1 0-1 0-3-1-2-20 7-36 15-51 1-3 3-4 3-6 2-2 3-2 3-4 0 0 0 0 0-1l1 0 1 0c3-4 6-8 9-12 18-21 42-35 72-43l13-2c1 0 2 0 3 0 2 0 5 0 7 0 2-1 4-1 6-1l0 0c29 0 55 7 78 23 3 3 8 6 12 9 23 18 38 42 46 72l2 9 4 0c5 0 6-3 7-4l0-1c5-5 9-10 12-16 1-1 2-1 2-1 2 0 3 2 4 3 2 0 1 1 1 2z"/>
<glyph glyph-name="bt-newsletter" unicode="&#99;" d="M132 512l0-34 223-224-221-224-2-2 0-33 255 257z"/>
<glyph glyph-name="bt-reservar" unicode="&#100;" d="M488 20l-476 0c-7 0-12-5-12-13 0-7 5-12 12-12l476 0c7 0 12 5 12 12 0 8-5 13-12 13z m-476 87l476 0c4 0 12 5 12 10 0 156-105 285-239 290 0 0 0 3 0 3l0 80 44 0c7 0 12 5 12 12 0 8-5 10-12 10l-108 0c-7 0-12-5-12-10 0-5 5-12 12-12l44 0 0-78c0 0 0-2 0-2-134-8-239-134-239-291 0-7 5-12 10-12z m239 281c122 0 222-115 227-259l-454 0c5 144 105 259 227 259z m-68-88c-3 0-44-12-71-76-2-5 0-12 5-14 2 0 2 0 5 0 5 0 7 2 10 7 22 51 56 63 58 63 5 0 7 8 7 13-2 7-7 9-14 7z"/>
<glyph glyph-name="bt-seta" unicode="&#101;" d="M375 406c-6 7-17 7-20 0-7-7-7-17 0-20l109-113-447 0c-10 0-17-7-17-17 0-10 7-17 17-17l447 0-112-113c-7-7-7-17 0-20 6-4 17-4 23 3l137 137c7 7 7 17 0 20z"/>
<glyph glyph-name="bt-social" unicode="&#102;" d="M512 268l-244 0 0 244-24 0 0-244-244 0 0-24 244 0 0-244 24 0 0 244 244 0z"/>
<glyph glyph-name="cofinancia-compete" unicode="&#103;" d="M333 244c-5 4-10 5-17 5-8 0-14-2-18-6-2-2-4-4-5-7-1-3-2-7-2-11l0-1 16 0 0 1c0 8 3 11 9 11 2 0 5-1 6-2 1-2 2-4 2-6 0-3-2-7-6-10l-30-35 51 0 0 13-20 0 12 14c2 1 3 3 4 5 3 5 5 9 5 14 0 5-1 9-4 13-1 0-2 1-3 2z m114 0c-4 4-10 5-17 5-8 0-14-2-18-6-4-5-6-10-6-18l0-1 16 0 0 1c0 8 3 11 9 11 2 0 4-1 5-2 2-2 3-4 3-6 0-3-2-7-6-10l-30-35 51 0 0 13-20 0 12 14c3 3 5 6 6 9 1 1 2 2 2 4 0 0 1 1 1 1 0 0 0 1 0 1 0 2 0 2 0 3 0 5-1 10-4 13-1 1-2 2-4 3z m-412 75c6 0 12-3 18-8l9 8c-9 8-17 12-27 12-9 0-18-3-25-10-7-7-10-15-10-25 0-10 3-18 10-25 7-7 15-11 25-11 10 0 17 4 24 10 1 0 2 1 2 2l-8 9c-4-4-8-6-12-7-2-1-4-1-5-1-1 0-3 0-3 0-5 1-10 3-14 7-5 4-7 10-7 16 0 6 2 12 7 16 4 5 10 7 16 7z m148-37l-17 47-16 0 0-67 12 0 0 43 16-43 11 0 15 42 0-42 12 0 0 67-16 0z m74 47l-29 0 0-67 12 0 0 28 17 0c6 0 11 2 15 6 5 3 7 8 7 14 0 6-2 11-7 14-4 4-9 5-15 5z m7-25c-2-1-4-2-7-2l-17 0 0 15 17 0c3 0 5 0 7-2 1-1 3-3 3-6 0-2-1-3-3-5z m72-30l-36 0 0 16 28 0 0 12-28 0 0 15 36 0 0 12-48 0 0-67 48 0z m8 43l21 0 0-55 12 0 0 55 21 0 0 12-53 0 0-12z m111-43l-36 0 0 16 28 0 0 12-28 0 0 15 36 0 0 12-49 0 0-67 49 0z m-384 12c0 0 0 1 0 1 0 0 0 1 0 1 0 0 0-1 0-1 0 0 0 0 0-1 0 1 0 0 0 0 0 0 0 0 0 0 0 0 0 0 0 0z m1-2c0 0-1 1-1 1 0 0 0 1 0 1 0 0 0 1 0 1 0 0 0-1 0-1 0 0 0-1 0-1 0 0 0-1 1-1 0 0 0 0 0 0z m0 25z m29 22c0 0 0 0 1 0 0 0 1 0 2 0-1 0-2 0-2 0 0 0-1 0-1 0 0 0 0 0 0 0z m-6-2c0 0 0 0 0 0 1 0 1 1 2 1 0 0-1 0-1-1 0 1-1 1-1 0z m-18-11c1 0 1 0 1 1 0 0 1 0 1 0-1 0-1 0-1 0 0 0 0-1-1-1 0 0 0-1 0-1 0 0 0 0 0 0 0 0 0 1 0 1z m14-54c0 0-1 0-1 0 0 0 0 0 0 1 0-1 1-1 1-1z m-3 63z m-18-24c0 0 0 0 0 0 0 0 0 0 0 0z m70-8l0 1c0 0 0-1 0-1z m-62-22c0 0 0 1-1 1 1-1 1-1 1-1z m9 54c0 0 1 0 1 0 0 0 0 0-1 0 1 0 0 0 0 0z m0-1c0 0 0 1 0 0 0 1 0 1 0 0 0 1 0 1 0 0 0 1 0 0 0 0z m-15-17c0 0 0 0 0-1 0 0 0 1 0 1 0 0 0 0 0 0z m28 22c0 0 0 0 1 0-1 0-1 0-1 0-1 0-1 0-2-1 1 1 1 1 2 1z m-30-37c0 2 0 3 0 4 0 0 0 1 0 3 0-1 0-2 0-2 0-1 0-1 0-1 0 0 0-1 0-1 0 0 0 1 0 1 0-1 0-1 0-2 0 0 0 0 0-2 0 1 0 1 0 0 0 1 0 1 0 0 0 1 0 1 0 0z m6 23c1 0 0 0 0 0z m10-50z m-10 49z m12 11c2 1 2 1 3 1 0 0-1 0-2 0 0 0 0 0 1 0 0 0 0 0-1 0 0 0 0 0 1 0 0 0 1 0 1 0 0 0-1 0-3-1 1 0 1 0 0 0 0 0 0 0-1 0 1 0 1 0 1 0 0 0 0 0-1 0 1 0 1 0 1 0z m51-38z m1 5c0 4-1 10-5 17-1 4-4 8-8 12 0 0 0 0-1 0 0 0 0 0 0 0 0 0 0 0 0 0 0 1-1 1-1 1-1 2-1 2-3 3-1 1-4 2-8 3l0 0c-2 0-2 1-3 1 0 0-1 0-2 0-1 0-2 0-2 0-1 0-1 0-1 0-1 0-1 0-1 0l-1 0c0 0 1 0 1 0l0 0c0 0 0 0 0 0 0 0 0 0-1 0-1 0-2 0-4 0-3-1-6-2-8-3 1 1 2 1 3 1-2-1-6-2-10-6 0 0 0 1 0 1 1 0 2 2 3 2 0 0 0 1 1 1 0 0-1 0-1 0 0 0 0 0 0 0l-2-1 0 0c0 0 0 0-1 0 0 0 0 0 0 0 0 0-1-1-1-1 1 0 1 1 1 1-1-1-2-2-3-2 0-1-1-1-2-2 1 0 1 0 1 1 1 0 1 0 1 1 0 0 1 0 1 0 0 0 0 1 1 2-1-1-2-2-2-2 0 0-1-1-1-1 0 0-1 0-1-1 0 0 0 0-1 0 0 0 0 0-1 0 0 0-1-1-1-1-1-1-1-2-2-2 0 0 0-1 0-1 0 0 0 1 0 1 0 0 0-1 0-1-1 0-1-1-2-1 0 0 0 0 0-1 0 0 0 0 0 0 0-1-1-1-1-2 0 0 0 0 0 0 0-1-1-2-1-3 0 0 0 1 0 1 0 0 0 0 0-1 2 4 4 7 6 8-1-1-1-2-1-4-2-1-3-2-4-4 0 0 0 0 0 0 0 0 0-1-1-1 0 0 0-1 0-1 0-1-1-2-1-3 0 0 0 0 0 0 0 0 0-1 0-2 0 0 0 0 0 0 0-1 0-1 0-1 0 0 0 0 0 0 0-1 0-3 0-5 0 0 0 0 0 0 0-1 0-1 0-2 0 0 0 0 0 0l0-1c0 0 0 1 0 1l0-1c0-1 0-2 0-2 0-1 0-2 0-3 0 0 0 1 0 1 0-1 0-1 1-2 0 0 0 0 0 0 0-2 1-4 1-6 0 0 0 0 0 0 0 0 0 1 0 1 0 0 0 0 0 0 0-1 0-2 0-2 1-1 1-2 1-2 1-1 1-1 2-2 0 0 0-1 1-1 0-1 0-2 1-2 0-1 0-1 1-2 0 0 0 0 1-1 1 0 1 0 2-2-1 1-1 1-1 2 0-1 0-1 1-2 0 0 0 0 0 0 0 0 1-1 1-1 0 0 0 0 1-1 0 0 0 0 0 0 0 0 0 0 0 0 0 0 0-1 0-1l0 0c0 0 0 0 1 0l-1 0c0 0 1 0 1 0 0 0 1 0 1-1 0-1 1-1 1-1 0 0 1 0 1-1 0 0-1 0-1 1 1 0 1-1 2-1 3-1 5-2 8-2 3 0 6-1 8-1 2 0 4 0 6 1l2 0-2 0c1 0 2 0 2 0 0 0 0 0 1 0-1 0-2 0-2 0-2-1-4-1-6-1-3 0-5 0-7 1-1 0-1 0-1 0 0 0 0 0 1 0 0 0 0 0-1 0 5-1 9 0 12 2 1 0 2 0 3 0 2 0 4 0 6 0-2-1-3-1-5-2 2 1 4 2 6 3 2 0 3 2 5 2l0 0c1 0 1 1 1 1l1 0c0 1 0 1 1 1 0 0 0 0 0 0 0 0 1 1 1 1 0 0-1-1-1-1 1 1 2 1 2 2 0 0 0 0 0-1l0 1c1 1 1 1 1 1 0 0 0 0 1 1 0 0 0 0-1-1l1 1c1 1 2 2 3 4 1 2 2 4 3 6 0 1 0 1 0 1 0 1 0 1 1 2 0 0 0 1 0 1 0 0 0 0 0 0 0 0 0 1 0 1 0 0 0 0 0 0 0 0 0 0 0 0 0 1 1 1 1 2 0 1 0 1 0 1 0 0 0 1 0 1 1 2 1 2 1 2z m-56 30c0 0-1 0-1 0 0 0 1 0 1 0z m-10-11c0 0 1 0 1 0-1 0-1 0-1 0z m65-11c-2 1-2 2-3 4 0 1-1 2-1 3 1-2 2-5 4-7z m-3 4c-1 0-1 0-1 1 0 0 0 0-1 1 0 2-2 5-5 10 2-2 3-3 4-5 0 0 1-1 1-1 0-1 0-3 0-4 0 0 1 0 1-1 0 0 0-1 1-1z m-7-28c0 4-1 6-3 10 2 1 4 2 5 3 0-4 0-7 0-11 0 0-1-1-2-2z m2 1c0-1 0-2 0-3-1-1-2-1-3-2 0 1 1 2 1 3 1 1 2 1 2 2z m-60 22c1 2 2 4 5 6 0-2 0-5 0-8-1-1-2-2-3-3 0 0 0-1 0-1 0 0 0 1 0 1-1 1-2 3-2 5z m5-4c0 0 0 0 1-1 1-4 5-14 18-23 0 0 0 0-1 0-2 0-4 1-11 7l0 0-1 1-1 1c-4 4-6 8-8 11 1 2 2 3 3 4z m7 7c-2-1-3-2-5-3 0 0-1 0-1-1-1 3-1 5-1 8 1 1 2 1 4 3 1-4 2-5 3-7z m-3 11z m1 0c0 0 0 1 0 1 3 2 5 3 5 3 0 0 1 0 1 0-1-1-1-2-2-3-2 0-3 0-4-1z m3-2c-1-1-1-2-1-3 0 1 0 1 0 1 0 1-1 1-1 1 0 0 0 0 1 0-1 1 0 1 1 1z m-7-16c1 2 4 3 6 4 0-3 0-6 2-9 1-3 2-5 2-7 4-6 10-11 17-13 0 0 0 0-1 0-3 0-5 0-7 0-9 6-16 15-19 25z m11 22c0 0 0 0 0 0-1 0-1 0-1 0 0 0 1 0 1 0z m0 2c0 0 0 0 0-1 0 1 0 1 0 1z m0-15z m3 12c0 0-1 0-2 1 1-1 1-1 2-1z m0 1z m6-4c9-6 18-13 22-18 2-3 4-5 6-8-1 0-1 0-2 0-2 5-6 10-14 14-7 8-13 10-18 11 0 1 0 1 0 2 3 1 4 0 6-1z m-5 2c0 1 0 1 0 0 0 1 0 1 0 0z m1 1c0 0 0 0-1 0 1 2 3 4 4 5 6 1 14 1 23-7-9 2-17 3-26 2z m30-7c4-7 7-13 8-19-2-1-4-2-5-3-6 11-19 20-30 27 5 1 23 1 27-5z m-3-37c0 0-3-1-4-1 1 3 3 7 2 13 1 0 2 0 3 0 1-4 1-8-1-12z m0 0z m-3 15c-1 2-1 3-2 5 2-2 3-3 4-5-1 0-2 0-2 0z m-3 1c-8 2-17 7-23 13 6 0 13-1 18-4 2-3 3-6 5-9z m-24 22c3-1 6-3 11-6-5 1-9 1-12 0 0 2 1 4 1 6z m1-20c-1 3-2 5-2 7 10-8 18-12 26-13 1-4 1-9-1-13-7 2-19 7-23 19z m20-25c1 1 2 1 3 2 0 0 0 0 0 0 1 0 2 0 3 0-1-1-2-2-3-2-2 0-2 0-3 0z m8 3c2 0 5 0 7 1-1-1-2-2-2-3-3-1-5-1-8-1l0 0c0 1 2 2 3 3z m3 3c2 1 3 2 5 3 0-1 0-1 0-2-2 0-4-1-5-1z m1 2c-1 0-1 0 0 0 1 4 2 8 1 12 1 0 1 1 2 1 1-4 2-7 1-10-1-1-3-2-4-3z m8 17c0-1 0-1 0 0z m0 1c-1 4-2 8-4 12-1 2-2 4-5 7 9-3 10-6 10-9 1-1 2-3 2-5 0-2-2-4-3-5z m1-1c1 1 2 3 3 5 1-5 1-9 1-12-1-1-2-2-3-3 0 3-1 6-1 10z m-6 32c3-3 5-6 6-10 2-1 2-2 3-3-1 1-2 2-3 3-1 2-2 4-4 5-1 1-1 2-1 2-3 2-5 5-8 7 2-1 5-3 7-4z m-20 7z m-1-1z m1 0c1 0 1 0 2-1-1 0-2 1-2 1 0 0 0 0 0 0 4 0 6-1 9-3 0 1-3 1-5 2 7-2 14-7 20-18-3 1-5 2-9 4-6 6-12 8-16 9-3 0-6 0-9 0 0 0 0 0 0 0 0 0 0 0 0 0 3 3 6 5 10 6z m-4 0c0 0 0 0 1 0-1 0-1 0-1 0z m-3-1c0 0 0 0 1 0-1 1-1 0-1 0z m-2 0c-4-1-6-3-9-7-1 0-1-1-1-1 0 0-3 1-5 1 0 0 0 0 0 0 4 2 9 6 15 7z m-17-9c1 0 2 1 5-1-2-1-3-2-5-3 0 1 0 2 0 3 0 1 0 1 0 1z m0 0c0 0 0 0 0 0z m0 0c0-1 0-1 0 0z m-1-1c0 0-1 0-1-1 0 1 1 1 1 1z m-2-5c0 1 0 1 1 2-1-1-1-1-1-2 1 0 1 0 0 0 0 0 0 0 0 0 0 0 0 0 0 0z m-1-3c0-1 0-2 0-2 0 0 0 0 0 0 0 1 0 2 0 2 1 1 1 1 2 1 0-1-1-1-2-3 0 0-1 0-1 0-1-1-2-2-3-3 2 2 4 5 4 5 0 0 0 0 0 0z m-5-5c1 3 3 4 4 5-2-4-3-5-4-9 0 2 0 3 0 4z m-1-8c0 1 0 3 0 4 0-1 0-2 0-3 0 0 0-1 0-1z m0-5c0 0 0 1 0 1 0 0 0 1 0 1 0 0 0 1 0 1 0-1 0-2 0-2 0 0 0 0 0 0 0 0 0-1 0-1z m0-2c0 0 0 0 0 1 0 0 0 1 0 2 0-1 0-2 0-2 0-1 0-1 0-1z m2 2c-1-1-1-3-1-5 0 0 0 0 0 0 0 0 0 0 0 0 0 0 0 0 0 1 0 3 0 6 0 9 0-2 0-3 1-5z m0-2c1-3 3-6 6-8 0-1 2-2 2-3l1-1 1 0c1-1 1-2 3-2-1 0-2 0-2 0-7 3-10 7-11 10 0 1 0 3 0 4z m1-11c0 0 0 0 0 1 0 0 0 0 0 1 0-1 0-2 0-2z m2-3c0 0 0 0 0 0 0 0 0 0 0 0z m11-11c1 0 1-1 2-1-1 0-1 0-2 1z m0 1c-2 1-4 2-5 4-4 3-6 7-8 10 0 1-1 2-1 4 0 0 0 0 0 0 3-4 5-6 9-8 0 0 15-9 21-11-6-2-11-2-16 1z m19 0c-4 1-8 3-9 3 4 0 7-2 11-3-1 0-1 0-2 0z m2-4c0 0 1 1 2 1 0 0 0 0 0 0-1 0-2-1-2-1z m0 5c-2 0-5 1-7 2 4 0 7 0 10 0-1-1-2-2-3-2z m4-3c0 0 0 0-1 0 0 0 1 1 1 1 0 0 1 0 1 0 0-1 0-1-1-1z m10 1c-2-1-4-1-6-1 0 0-1 0-1 0 0 0 0 1 1 1 0 0 0 0 1 0 0 0 1 0 1 0 3 0 4 1 7 1-2 0-2-1-3-1z m5 2c-1 0-1-1 0 0-1-1-1-1 0 0-1-1 0 0 0 0z m0 0c-1 0-2-1-4-1 1 0 1 0 2 1 1 0 2 1 3 2 0-1 0-1-1-2z m3 3c0 0-1-1-1-1-1 0-2-1-4-2 1 1 2 2 3 4 1 0 2 1 3 1 0 0-1-1-1-2z m2 2c0 0 0 0 0 0 0-1 0-1 0 0 0 0 0 0 0 0 0-1-1-1-1-2 1 1 1 2 1 3 0 1 0 1 1 1 0 0 0 0-1-1 1 1 2 2 3 3-1-2-2-3-3-4z m4 6c-1 0-2-1-3-2 0 1 1 2 1 3 1 1 2 2 2 3 0-1 0-3 0-4z m0 0z m4 11c-1-1-2-2-2-3 0-1 0-2 0-2 0 1 1 2 2 4l0 0c0 1 1 2 1 2-1-2-1-3-1-4 0 0 0-1-1-2-1-1-2-3-3-5 0 0 0-1 0-1 0 0 0 1 0 1 1 2 1 3 1 4 0 1 0 1 0 2 1 5 0 10-1 16 0 0 0 0 0 0 0 1 0 1 0 1 2-2 4-5 4-10 1-1 0-1 0-3z m1 4c0-1 0-1 0 0 0 0 0 1 0 2 0-1 0-2 0-2z m-55-27c0 0-1 0 0 0-1 0 0 0 0 0z m-1 0z m7 61z m17 1c1 0 2 0 2 0 0 0-1 0-2 0z m-14 0c1 0 1 0 1 1 0-1 0-1-1-1 0 0-1 0-2 0 1 0 1 0 2 0z m-9-62c-1 0-1 0 0 0-1 0-1 0 0 0-1 0 0 0 0 0z m1 59z m300-81c-4 3-8 4-14 4-9 0-15-4-20-11-3-4-4-10-5-17 0-2 0-4 0-6 0-2 0-5 0-7 1-7 2-12 5-17 5-7 11-11 20-11 9 0 15 4 20 11 0 1 0 2 1 3 3 5 4 12 4 20 0 10-1 18-5 24-1 3-4 5-6 7z m-14-51c-2 0-4 1-5 3 0 1 0 1 0 1 0 1-1 1-1 1 0 2-1 4-1 6 0 1 0 1 0 2 0 2-1 4-1 7 0 6 1 10 1 13 1 1 1 3 1 4 2 3 4 4 6 4 6 0 9-7 9-21 0-14-3-20-9-20z m135 44c-4 8-11 11-20 11-9 0-16-4-20-11-3-6-6-14-6-23 0-10 2-17 6-24 4-7 11-11 20-11 2 0 4 0 6 1 6 1 10 5 13 10 4 6 6 13 6 23 0 10-2 18-5 24z m-18-44c0 0-1 0-2 0-1 0-1 0-2 0-4 2-6 9-6 21 0 5 0 10 1 13 1 5 4 8 7 8 6 0 8-7 8-21 0-12-2-19-6-21z"/>
<glyph glyph-name="cofinancia-fundoseuropeus" unicode="&#104;" d="M217 297c0-1 0-2 0-3 0 0 0-1 0-2-1 0-2 0-2 0-1 0-2 0-3 1 0 0-1 1-1 2 0 0 0 1 0 2l0 10-4 0 0-10c0-2 0-3 1-4 0-1 0-1 0-2 1-1 2-1 3-2 0 0 2 0 3 0 1 0 3 0 3 0 1 1 2 1 3 1 0 1 0 2 1 2 0 2 0 4 0 6l0 9-4 0z m12 4l7-12 3 0 0 18-3 0 0-12-7 12-4 0 0-17 4 0z m18 6l-4 0 0-17 4 0z m8 1c0 0 0 0 0 0 0 0 1 1 1 1 0 0 0 0 1-1 1 0 1 0 1 0 1 0 1 0 1 0 1 0 2 0 2 1 0 0 0 1 0 2l-1 0c0 0 0-1-1-1 0 0 0 0-1 0 0 0 0 0-1 0-1 1-1 1-1 1-1 0-1 0-1 0-1 0-1-1-2-1 0 0 0-1 0-2 0 0 0 0 0 0z m-1-15l7 0 2-4 3 0-7 17-3 0-7-17 3 0z m3 10l3-7-5 0z m19-14c3 0 5 1 7 3 1 1 2 3 2 6 0 3-1 5-2 7-2 1-4 2-7 2-1 0-2 0-3-1-1 0-2 0-2-1-1-1-1-2-2-3 0-1-1-3-1-4 0-3 1-5 3-7 1-1 3-2 5-2z m-3 14c1 1 2 1 3 1 2 0 3 0 4-1 1-1 1-3 1-5 0-2 0-3-1-4-1-1-2-2-4-2-1 0-2 0-3 2-1 1-1 2-1 4 0 2 0 3 1 5z m35-11l-9 0 0 5 8 0 0 3-8 0 0 4 9 0 0 3-13 0 0-17 13 0z m5-1c1 0 2-1 2-1 1-1 2-1 4-1 1 0 3 0 3 1 1 0 2 0 2 1 1 0 1 1 2 2 0 1 0 2 0 4l0 10-4 0 0-10c0-1 0-2 0-2 0-1 0-2 0-2-1-1-2-1-3-1 0 0-1 1-2 1 0 1-1 1-1 2 0 0 0 1 0 3l0 9-4 0 0-10c0-2 0-3 1-4 0-1 0-1 0-2z m20 6l1 0c1 0 1 0 2 0 0 0 1-1 1-1 1-1 1-1 2-3l3-3 4 0-2 3c-1 1-2 2-2 3-1 0-2 1-2 1 1 1 2 1 3 2 1 0 1 2 1 3 0 1 0 2-1 3 0 1-1 1-2 1-1 1-2 1-4 1l-7 0 0-17 3 0z m0 7l3 0c2 0 3 0 3 0 0 0 1 0 1-1 0 0 0-1 0-1 0-1 0-1 0-1 0-1 0-1-1-1 0 0-1-1-3-1l-3 0z m23-15c2 0 4 1 6 3 1 1 2 3 2 6 0 3-1 5-2 7-2 1-4 2-6 2-2 0-3 0-4-1-1 0-2 0-2-1-1-1-2-2-2-3 0-1-1-3-1-4 0-3 1-5 3-7 1-1 3-2 6-2z m-4 14c1 1 2 1 4 1 2 0 2 0 3-1 1-2 1-3 1-5 0-2 0-3-1-4-1-1-2-2-3-2-1 0-3 0-4 2-1 1-1 2-1 4 0 2 0 3 1 5z m29-2c0 2-1 3-1 4-1 1-2 1-3 1-1 0-2 1-4 1l-6 0 0-17 4 0 0 6 3 0c1 0 2 0 3 0 1 0 1 1 2 1 0 0 1 1 2 2 0 0 0 1 0 2z m-5-1c0-1 0-1-1-1 0 0-1 0-2 0l-2 0 0 5 1 0c2 0 2 0 3 0 0 0 1 0 1-1 1 0 1-1 1-2 0 0 0-1-1-1z m11-3l9 0 0 3-9 0 0 4 10 0 0 3-13 0 0-17 13 0 0 2-10 0z m17 10l-4 0 0-17 4 0z m7-14l7 0 2-4 4 0-7 17-4 0-7-17 4 0z m4 10l2-7-5 0z m-415-110l191 0 0 126-191 0z m59 34l-5 2-4-2 2 4-4 4 5 0 1 5 2-5 5 0-4-4z m92 31l-4-3 1-5-4 3-4-3 2 5-4 3 5 0 1 5 2-5z m-14 25l1 5 2-5 5 0-5-4 2-5-4 3-4-3 2 5-5 4z m0-49l1 5 2-5 5 0-4-3 2-5-5 3-4-3 2 5-4 3z m-18 66l1 5 2-5 5 0-4-3 2-5-5 3-4-3 2 5-4 3z m0-83l1 5 2-5 5 0-4-3 2-5-5 3-4-3 2 5-4 3z m-25 90l2 4 1-5 5 0-4-3 2-5-4 3-4-3 1 5-4 3 5 0z m0-96l2 5 1-5 5 0-4-3 2-5-4 3-4-3 1 5-4 3z m-24 89l2 5 2-5 5 0-4-3 1-5-4 3-4-3 2 5-4 4 4 0z m0-83l2 5 2-5 5 0-4-3 1-5-4 3-4-3 2 5-4 3z m-17 66l1 5 2-5 5 0-4-4 2-5-5 3-4-3 2 5-4 4z m-7-25l2 5 1-5 5 0-4-3 2-5-4 3-5-3 2 5-4 3z m162-25l2 0 0 7 8 0 0 2-8 0 0 6 9 0 0 2-11 0 0-17z m22 1l0-1 2 0 0 12-2 0 0-7c0-1 0-1-1-2 0 0 0-1-1-1 0-1-1-1-1-1-1 0-2 0-2 1-1 0-1 1-1 1 0 0 0 1 0 2l0 7-2 0 0-7c0-1 0-2 0-2 0-1 0-2 1-2 0-1 1-1 1-1 1-1 1-1 2-1 2 0 3 1 4 2z m12 9c0-1 0-1 0-1 0 0 1-1 1-2l0-7 2 0 0 7c0 1 0 2 0 2 0 0 0 1-1 2 0 0-1 1-1 1-1 0-1 0-2 0-2 0-3 0-4-2l0 2-2 0 0-12 2 0 0 6c0 2 1 3 1 3 1 1 1 1 2 1 1 0 1 0 2 0z m14 0c0 1-1 1-1 2-1 0-1 0-2 0-1 0-2 0-3-1-1 0-1-1-2-2 0-2 0-2 0-4 0-1 0-2 1-3 0-1 1-2 2-2 0 0 1-1 3-1 1 0 2 1 3 2l0-2 1 0 0 17-2 0z m-1-8c-1-1-1-1-2-1-1 0-2 0-3 1-1 1-1 2-1 4 0 1 1 3 1 3 1 1 1 2 3 2 1 0 1-1 2-2 1 0 1-2 1-3 0-2 0-3-1-4z m16 0c1 1 1 2 1 4 0 2 0 3-2 4-1 2-2 2-4 2-1 0-3 0-3-1-2-2-2-3-2-5 0-2 0-4 1-5 1-1 3-2 4-2 1 0 2 1 3 1 1 0 2 1 2 2z m-5-1c-1 0-2 0-2 1-1 1-1 2-1 4 0 1 0 3 1 3 1 1 1 2 2 2 1 0 2-1 3-2 1 0 1-2 1-3 0-1-1-3-1-3-1-2-2-2-3-2z m13 0c-1 0-2 0-3 1 0 0 0 1 0 2l-2-1c0-1 0-2 1-3 1 0 2 0 4 0 1 0 2 0 2 0 1 0 2 1 2 1 0 1 0 2 0 2 0 1 0 2 0 2 0 0-1 1-1 1-1 1-2 1-3 1-1 0-2 0-2 0 0 0-1 1-1 1 0 0 0 0 0 1 0 0 0 0 0 1 1 0 2 0 3 0 0 0 1 0 2 0 0-1 0-1 0-2l2 1c0 0 0 1 0 2-1 1-1 1-2 1-1 0-2 0-2 0-1 0-2 0-2 0-1 0-1 0-1 0-1-1-1-1-1-2 0 0-1-1-1-1 0-1 0-2 1-2 0 0 1-1 1-1 0-1 2-1 3-1 2 0 2 0 2-1 1 0 1-1 1-1 0 0-1-1-1-1-1-1-1-1-2-1z m27 1l-11 0 0 5 9 0 0 2-9 0 0 6 10 0 0 2-13 0 0-17 13 0 0 2z m2 10l0-7c0-1 0-2 0-2 0-1 0-2 1-2 0-1 1-1 1-1 0-1 1-1 2-1 2 0 3 1 4 2l0-1 2 0 0 12-2 0 0-7c0-1 0-1-1-2 0 0 0-1-1-1 0-1-1-1-1-1-1 0-2 0-2 1-1 0-1 1-1 1 0 0 0 1 0 2l0 7z m18 0c-1 0-1 0-2 0 0-1 0-1-1-2l0 2-2 0 0-12 3 0 0 6c0 1 0 2 0 3 0 0 0 0 1 1 0 0 1 0 1 0 0 0 1 0 2 0l1 2c-2 0-3 0-3 0z m8-13c1 0 2 1 3 1 1 0 2 1 2 2 1 1 1 2 1 4 0 2 0 3-2 4-1 2-2 2-4 2-1 0-3 0-3-1-2-2-2-3-2-5 0-2 0-4 1-5 1-1 3-2 4-2z m-3 10c1 1 2 1 3 1 1 0 2 0 2-1 1-1 2-2 2-3 0-2-1-3-1-4-1-1-2-1-3-1-1 0-2 0-2 1-1 1-1 2-1 4 0 1 0 2 0 3z m19-9c1 0 2 1 2 3 1 0 1 2 1 3 0 1 0 2 0 3-1 1-1 2-2 3-1 0-2 0-3 0-1 0-1 0-2 0 0 0-1-1-2-1l0 1-2 0 0-16 2 0 0 5c1 0 1-1 2-1 0 0 1 0 2 0 1-1 1 0 2 0z m-5 2c-1 1-1 2-1 3 0 2 0 3 1 4 0 1 2 1 2 1 1 0 2 0 3-1 1-1 1-2 1-4 0-1-1-2-1-3-1-1-2-2-3-2 0 1-1 1-2 2z m21 1l-2 1c-1-1-1-2-2-2 0-1-1-1-2-1 0 0-2 1-2 2-1 0-1 1-1 3l9 0c0 0 0 0 0 0 0 2-1 4-2 5-1 1-2 1-4 1-2 0-3 0-4-1-1-2-2-3-2-5 0-2 1-4 2-5 1-1 2-1 4-1 1 0 2 0 4 1 1 1 1 1 2 2z m-8 6c1 1 2 1 2 1 2 0 2 0 3-1 0 0 1-1 1-2l-7 0c0 1 0 2 1 2z m18-8l0-1 2 0 0 12-2 0 0-7c0-1 0-1 0-2 0 0 0-1-1-1-1-1-1-1-2-1-1 0-1 0-1 1-1 0-1 1-1 1 0 0 0 1 0 2l0 7-2 0 0-7c0-1 0-2 0-2 0-1 0-2 0-2 1-1 1-1 2-1 0-1 1-1 2-1 1 0 3 1 3 2z m10 0c-1 0-2 0-2 1-1 0-1 1-1 2l-2-1c0-1 1-2 2-3 0 0 2 0 3 0 1 0 2 0 3 0 1 0 1 1 1 1 1 1 1 2 1 2 0 1 0 2-1 2 0 0 0 1-1 1 0 1-2 1-3 1-1 0-1 0-1 0-1 0-1 1-1 1 0 0-1 0-1 1 0 0 0 0 1 1 0 0 1 0 2 0 1 0 1 0 2 0 0-1 1-1 1-2l2 1c0 0-1 1-1 2 0 1-1 1-2 1-1 0-1 0-2 0-1 0-1 0-2 0 0 0-1 0-1 0 0-1-1-1-1-2 0 0-1-1-1-1 0-1 0-2 0-2 1 0 1-1 2-1 0-1 1-1 3-1 1 0 1 0 2-1 0 0 0-1 0-1 0 0 0-1-1-1 0-1 0-1-1-1z m16 6l10 0 0 2-10 0 0 6 10 0 0 2-12 0 0-17 12 0 0 2-10 0z m21-1c0 1-2 1-3 1-1 0-1 0-1 0-1 0-1 1-1 1 0 0-1 0-1 1 0 0 0 0 1 1 0 0 1 0 2 0 1 0 1 0 2 0 1-1 1-1 1-2l2 1c0 0-1 1-1 2 0 1-1 1-2 1-1 0-1 0-2 0-1 0-1 0-2 0 0 0-1 0-1 0 0-1-1-1-1-2 0 0 0-1 0-1 0-1 0-2 0-2 1 0 1-1 1-1 1-1 2-1 4-1 1 0 1 0 2-1 0 0 0-1 0-1 0 0 0-1-1-1 0-1-1-1-2-1-1 0-1 1-2 1 0 1-1 1-1 2l-2 0c1-1 1-3 2-3 1-1 2-1 4-1 0 0 1 0 2 0 1 1 1 1 2 2 0 0 0 1 0 2 0 1 0 1 0 1-1 0-1 1-2 1z m8-5c-1 0-1 0-1 0 0 0 0 1 0 1 0 0 0 0 0 1l0 7 2 0 0 2-2 0 0 4-2-2 0-2-2 0 0-2 2 0 0-7c0-1 0-2 0-3 0 0 0 0 1 0 0-1 1-1 1-1 1 0 1 0 2 0l0 2c-1 0-1 0-1 0z m6 11c0-1-1-1-1-2l0 2-2 0 0-12 2 0 0 6c0 1 0 2 0 3 0 0 1 0 1 1 0 0 1 0 1 0 1 0 1 0 2 0l1 2c-1 0-1 1-2 1-1-1-2-1-2-1z m12-7c0-1 0-1 0-2 0-1 0-1-1-1-1-1-2-1-2-1 0 0-1 0-2 1 0 0 0 1 0 1 0 0 0 1 0 2l0 7-2 0 0-7c0-1 0-2 0-2 0-1 0-2 0-2 1-1 1-1 2-1 0-1 1-1 2-1 1 0 3 1 3 2l0-1 2 0 0 12-2 0z m9-4c0 0 0 0 0 0 0 0-1 1-1 1 0 0 0 0 0 1l0 7 2 0 0 2-2 0 0 4-2-2 0-2-2 0 0-2 2 0 0-7c0-1 0-2 0-3 0 0 1 0 1 0 1-1 1-1 2-1 0 0 1 0 2 0l-1 2c0 0 0 0-1 0z m11 4c0-1 0-1 0-2-1 0-1-1-2-1 0-1-1-1-1-1-1 0-2 0-2 1 0 0-1 1-1 1 0 0 0 1 0 2l0 7-2 0 0-7c0-1 0-2 0-2 0-1 1-2 1-2 0-1 1-1 1-1 1-1 1-1 2-1 2 0 3 1 4 2l0-1 2 0 0 12-2 0z m9 7c-1-1-1-1-2-2l0 2-2 0 0-12 2 0 0 6c0 1 0 2 1 3 0 0 0 0 1 1 0 0 0 0 1 0 0 0 1 0 1 0l1 2c-1 0-1 1-2 1-1-1-1-1-1-1z m14-7l0 2c0 1 0 2 0 2 0 1 0 2-1 2 0 0-1 1-2 1 0 0-1 0-2 0-1 0-2 0-3 0-1-1-1-1-1-2-1 0-1-1-1-2l2 0c0 1 0 1 1 1 0 1 1 1 2 1 1 0 2-1 2-1 1 0 1-1 1-2 0 0 0 0 0 0-1 0-2 0-4-1-1 0-1 0-1 0-1 0-2-1-2-1 0 0-1-1-1-1-1-1-1-1-1-2 0-1 1-2 2-2 0-1 1-1 3-1 1 0 1 0 2 0 1 1 2 1 2 1 0 0 0-1 1-1l2 0c-1 0-1 1-1 1 0 2 0 3 0 5z m-2 0c0-1 0-2-1-2 0 0 0-1-1-1 0 0-1-1-2-1-1 0-1 0-1 1-1 0-1 1-1 1 0 0 0 1 0 1 0 0 1 0 1 1 0 0 1 0 2 0 1 0 2 0 3 1z m5 9l2 0 0 2-2 0z m0-14l2 0 0 12-2 0z m14 5c0 0-1 1-1 1-1 1-2 1-3 1-1 0-2 0-2 0 0 0 0 1 0 1 0 0-1 0-1 1 0 0 1 0 1 1 0 0 1 0 2 0 0 0 1 0 2 0 0-1 0-1 0-2l3 1c0 0-1 1-1 2-1 1-1 1-2 1-1 0-2 0-2 0-1 0-2 0-2 0 0 0-1 0-1 0-1-1-1-1-1-2 0 0 0-1 0-1 0-1 0-2 0-2 0 0 1-1 1-1 1-1 2-1 3-1 2 0 2 0 2-1 1 0 1-1 1-1 0 0-1-1-1-1 0-1-1-1-2-1-1 0-2 1-2 1 0 1-1 1-1 2l-2 0c1-1 1-3 2-3 1-1 2-1 3-1 1 0 2 0 3 0 1 1 1 1 2 2 0 0 0 1 0 2 0 0 0 1-1 1z m-296-21c-2 0-3-1-5-2-1-1-1-3-1-5 0-2 0-4 1-4 2-2 3-2 5-2 1 0 2 0 3 1 1 1 2 2 2 3l-2 0c0 0-1-1-1-2 0 0-1 0-2 0-1 0-2 0-2 1-1 1-2 1-2 3l9 0c0 1 0 1 0 1 0 2-1 3-2 4-1 1-2 2-3 2z m-4-5c0 1 1 2 2 2 0 1 1 1 2 1 1 0 2 0 2-1 1-1 1-1 1-3l-7 0z m26 3c0 0-1 1-1 1-1 1-1 1-2 1-1 0-2-1-3-1-1-1-1-1-2-3 0-1 0-2 0-3 0-1 0-2 1-3 0-1 1-2 2-2 1-1 1-1 3-1 1 0 2 0 3 2l0-2 2 0 0 17-2 0 0-6z m-1-8c-1-1-1-1-2-1-1 0-2 0-3 1 0 1 0 2 0 4 0 1 0 2 0 3 1 1 2 1 3 1 1 0 1 0 2-1 1-1 1-2 1-3 0-2 0-3-1-4z m11 10c-1 0-3-1-4-2-1-1-1-3-1-5 0-2 0-4 1-4 1-2 3-2 4-2 2 0 3 0 4 1 1 1 2 2 2 3l-2 0c0 0-1-1-1-2-1 0-1 0-2 0-1 0-2 0-3 1 0 1-1 1-1 3l9 0c0 1 0 1 0 1 0 2-1 3-2 4-1 1-2 2-4 2z m-3-5c0 1 0 2 1 2 1 1 2 1 2 1 2 0 2 0 3-1 0-1 1-1 1-3l-7 0z m19-8l2 0 0 17-2 0z m15 11c-1 1-1 1-2 2 0 0-1 0-2 0-1 0-2-1-3-2l0 2-3 0 0-13 2 0 0 7c0 2 1 2 1 3 1 1 1 1 3 1 0 0 1 0 1 0 1-1 1-1 1-1 0-1 0-1 0-2l0-8 2 0 0 8c0 1 0 1 0 2 0 1 0 1 0 1z m9-6c-1-1-1-1-1-2-1 1-1 1-1 2l-2 8-2 0 4-13 2 0 5 13-2 0z m11 8c-1 0-3-1-4-2-1-1-2-3-2-5 0-2 1-4 2-4 1-2 3-2 4-2 1 0 3 0 4 1 1 1 1 2 2 3l-2 0c-1 0-1-1-1-2-1 0-2 0-2 0-1 0-2 0-3 1 0 1-1 2-1 4l9 0c0 0 0 0 0 0 0 2-1 4-2 4-1 1-2 2-4 2z m-3-5c0 1 0 2 1 2 1 1 2 1 3 1 1 0 2 0 2-1 0-1 1-1 1-3l-7 0z m19-1c-1 0-2 0-3 1-1 0-2 0-2 0 0 0-1 1-1 1 0 0 0 0 0 0 0 1 0 1 0 2 1 0 2 0 2 0 1 0 2 0 2 0 1-1 1-1 1-2l2 0c0 1 0 2 0 2-1 1-1 1-2 2-1 0-2 0-3 0 0 0-1 0-1 0-1 0-1-1-1-1-1 0-1-1-1-1 0 0-1-1-1-2 0 0 0-1 1-1 0-1 1-1 1-1 0-1 2-1 3-1 1-1 2-1 2-1 1-1 1-1 1-1 0-1-1-1-1-2-1 0-1 0-2 0-1 0-2 0-2 1-1 0-1 1-1 2l-2-1c0-1 1-2 2-2 0-1 2-1 3-1 1 0 2 0 3 0 1 1 1 1 1 1 1 1 1 2 1 2 0 1 0 2-1 2 0 0 0 1-1 1z m8-5c-1 0-1 0-1 0 0 0 0 0 0 0 0 0 0 1 0 2l0 7 2 0 0 1-2 0 0 4-2-1 0-3-2 0 0-1 2 0 0-7c0-2 0-2 0-3 0 0 0-1 1-1 0 0 1 0 1 0 1 0 1 0 2 0l0 2c-1 0-1 0-1 0z m3-2l2 0 0 13-2 0z m0 15l2 0 0 2-2 0z m18-2c-2 0-3-1-4-2 0 0-1 1-1 1-1 1-1 1-2 1-1 0-2 0-2-1-1 0-1-1-2-1l0 1-2 0 0-12 2 0 0 6c0 1 0 2 0 3 1 0 1 1 1 1 1 0 2 0 2 0 1 0 1 0 2-1 0 0 0-1 0-2l0-7 2 0 0 7c0 1 1 2 1 2 0 1 1 1 2 1 0 0 1 0 1 0 1-1 1-1 1-1 0 0 0-1 0-2l0-7 2 0 0 8c0 1 0 2-1 3 0 2-1 2-2 2z m12 0c-2 0-3-1-4-2-2-1-2-3-2-5 0-2 0-4 2-4 1-2 2-2 4-2 1 0 2 0 3 1 1 1 2 2 2 3l-2 0c0 0 0-1-1-2 0 0-1 0-2 0-1 0-2 0-2 1-1 1-2 2-2 4l9 0c0 0 0 0 0 0 0 2 0 4-1 4-1 1-3 2-4 2z m-4-5c0 1 0 2 1 2 1 1 2 1 3 1 1 0 2 0 2-1 1-1 1-1 1-3l-7 0z m21 3c-1 1-1 1-1 2-1 0-2 0-2 0-2 0-3-1-4-2l0 2-3 0 0-13 2 0 0 7c0 2 1 2 1 3 1 1 2 1 3 1 0 0 1 0 1 0 1-1 1-1 1-1 0-1 1-1 1-2l0-8 2 0 0 8c0 1 0 1 0 2-1 1-1 1-1 1z m7-9c0 0 0 0-1 0 0 0 0 0 0 0 0 0 0 1 0 2l0 7 2 0 0 1-2 0 0 4-2-1 0-3-2 0 0-1 2 0 0-7c0-2 0-2 0-3 0 0 1-1 1-1 1 0 1 0 2 0 0 0 1 0 1 0l0 2c0 0 0 0-1 0z m8 11c-2 0-3-1-4-2-1-1-2-2-2-4 0-3 1-4 2-5 1-2 2-2 4-2 1 0 2 0 3 1 1 0 2 1 2 2 0 1 1 2 1 4 0 2-1 3-2 4-1 1-2 2-4 2z m3-10c-1-1-2-1-3-1-1 0-2 0-2 1 0 1-1 2-1 4 0 1 1 2 1 3 1 1 2 1 2 1 1 0 2 0 3-1 1-1 1-2 1-3 0-2-1-3-1-4z"/>
<glyph glyph-name="cofinancia-portugal2020" unicode="&#105;" d="M173 212c5 3 9 7 12 10 3 2 6 6 9 9 2 2 3 6 5 9 1 4 1 7 1 11l0 0c0 5 0 9-2 13-2 3-4 7-7 9-3 3-6 5-10 7-4 1-9 2-14 2-4 0-8-1-12-2-4-1-7-2-10-4-3-1-5-4-8-6-3-3-5-6-8-10l13-10c4 5 8 9 12 12 3 3 7 4 12 4 4 0 8-1 12-4 3-3 4-7 4-12 0-2 0-4-1-6 0-3-2-4-3-7-2-2-4-4-6-6-3-3-6-5-9-8l-36-30 0-14 74 0 0 15-49 0z m129 57c-5 4-11 8-17 11-6 3-14 4-22 4-8 0-15-2-21-4-7-3-12-7-17-12-4-5-8-10-11-17-3-6-4-12-4-20l0 0c0-8 1-14 4-21 3-6 6-11 10-16 5-6 11-9 17-12 7-3 14-4 22-4 8 0 15 2 21 5 7 3 13 7 17 11 5 5 8 11 11 17 3 6 4 13 4 20l0 1c0 7-1 14-4 20-2 6-6 12-10 17z m-4-38c0-5-1-9-3-14-2-4-4-8-7-11-3-3-7-6-11-8-5-2-9-3-14-3-5 0-10 1-14 3-5 2-8 5-12 8-2 3-5 7-7 12-2 4-3 9-3 14l0 0c0 5 1 10 3 14 2 5 4 9 7 12 3 3 7 5 11 8 5 1 9 2 14 2 5 0 10-1 14-2 5-2 8-5 12-8 2-4 5-8 7-12 2-5 3-10 3-15z m72-19c4 3 8 7 11 10 4 2 7 6 9 9 2 2 4 6 5 9 1 4 2 7 2 11l0 0c0 5-1 9-3 13-1 3-4 7-6 9-3 3-7 5-11 7-4 1-8 2-14 2-4 0-8-1-12-2-4-1-7-2-9-4-3-1-6-4-9-6-3-3-5-6-7-10l12-10c4 5 7 9 11 12 3 3 8 4 12 4 5 0 9-1 12-4 3-3 5-7 5-12 0-2-1-4-2-6 0-3-1-4-3-7-2-2-3-4-6-6-2-3-6-5-9-8l-36-30 0-14 75 0 0 15-48 0z m139 40c-3 6-6 12-11 17-4 4-10 8-16 11-7 3-14 4-22 4-8 0-16-2-22-4-6-3-12-7-17-12-4-5-8-10-11-17-3-6-4-12-4-20l0 0c0-8 1-14 4-21 3-6 6-11 11-16 4-6 10-9 17-12 6-3 13-4 21-4 8 0 15 2 21 5 7 3 13 7 17 11 5 5 9 11 12 17 2 6 4 13 4 20l0 1c0 7-2 13-4 20z m-15-21c0-5-1-9-3-14-2-4-4-8-7-11-4-3-7-6-11-8-4-2-9-3-14-3-5 0-9 1-14 3-4 2-8 5-11 8-3 3-6 7-8 12-1 4-2 9-2 14l0 0c0 5 0 10 2 14 2 5 4 9 8 12 3 3 7 5 10 8 4 1 9 2 15 2 5 0 9-1 14-2 4-2 7-5 11-8 3-4 5-8 7-12 2-5 3-10 3-15z m-188 103l-7 0-9-25c-1 0-2 0-2 0l0-3 10 0 0 3c-1 0-2 0-3 0l2 4 10 0 1-4c-1 0-2 0-2 0l0-3 11 0 0 3c-1 0-2 0-2 0z m-8-17l2 7c1 2 2 3 2 5 0-2 0-3 1-5l3-7-8 0z m-158-8c-1 0-2 0-4 0l0 7c1 0 1 0 2 0 7 0 11 4 11 10 0 5-4 9-11 9-2 0-6 0-7 0l-4 0 0-4c1 0 2 0 4 0l0-21c-1 0-3-1-4-1l0-3 13 0z m-4 21c1 0 1 0 2 0 4 0 5-2 5-5 0-3-2-5-5-5-1 0-1 0-2 0z m140-25c3 0 7 1 10 2l0 10c0 0 2 0 2 0l0 4-12 0 0-4c1 0 3 0 4 0l0-6c-1-1-3-1-4-1-5 0-9 3-9 10 0 6 4 10 10 10 1 0 2 0 3-1 0-1 0-2 1-3l4 0 0 8c-3 0-5 1-8 1-10 0-16-6-16-15 0-9 6-15 15-15z m-42 11c0-6 2-10 11-10 8 0 12 3 12 11l0 13c1 0 2 0 3 1l0 3-11 0 0-3c1 0 2-1 3-1l0-14c0-5-2-7-7-7-4 0-6 3-6 7l0 14c1 0 2 0 3 1l0 3-11 0 0-3c0 0 1-1 2-1l0-14z m-69-11c8 0 14 6 14 15 0 10-6 15-13 15-8 0-14-6-14-15 0-9 4-15 13-15z m0 25c5 0 8-4 8-10 0-7-4-10-8-10-5 0-7 4-7 10 0 7 3 10 7 10z m173-17l-4 0c0-1-1-2-1-3l-6 0 0 20c2 0 3 1 4 1l0 3-13 0 0-3c2 0 3-1 4-1l0-21c-1 0-2 0-4 0l0-3 20 0z m-128 17l4 0 0-21c-1 0-2 0-4 0l0-3 13 0 0 3c-1 0-2 0-4 0l0 21 5 0c0-1 0-3 0-4l4 0 0 8-23 0 0-8 4 0c1 1 1 3 1 4z m-12-13c-1 0-1 1-2 1 4 2 7 4 7 8 0 6-4 8-11 8-3 0-7 0-8 0l-3 0 0-3c1 0 2-1 4-1l0-21c-2 0-3 0-4 0l0-3 11 0 0 3c-1 0-1 0-2 0l0 8 0 0 7-11 7 0 0 3c-1 0-2 0-3 0z m-6 4c-1 0-1 0-1 0l0 9c0 0 1 0 2 0 3 0 5-1 5-4-1-3-2-5-6-5z m-151-75l0 88c-25-10-41-37-41-77l0-62c0 0 5 40 41 51z m12-6c-14-3-36-15-42-32 31 38 96 1 99 73 1 23 1 52 1 52-34-2-58-11-58-11z m-41-44c-2-15 37-15 37-15l0 38c0 0-34-3-37-23z"/>
<glyph glyph-name="essencia-amadeirada" unicode="&#106;" d="M116 312c-12 5-16 16-9 35 1 18 0 38 0 57-1 31-2 64-13 93-2 5-6 0-4-4 1-11-10-145 5-204 2-36 3-71 0-107 0-2 0-3 2-3 0-52 10-108 15-158 1-16 18-16 17 0-7 76-37 192 20 249 14 14 34 51 20 71-35 51-67-2-53-29z m-10-63c-1-2-2-5-2-7 0 7 0 13-2 20 2-4 3-8 4-13 0 1 0 1 0 0z m3 9c0 1-1 3-1 5 1-1 3-2 3-2 0-2-2-3-2-3z m18 111c1-1 2 0 3 1 3 9 0 23 0 34 0 27 0 54-1 81 0 3-2 3-2 0-1-24-2-50-2-74 0-8 0-17 0-25 0-2 0-4 0-7 0-1 0-1 0-2-2 0-2-2-2-3 2-2 2-4 4-5z m-63 128c0 2-2 1-2-1 17-85 4-181 7-267 2-70 7-139 8-209 0-7 7-6 7 0-1 70-6 139-10 209-2 89 10 182-10 268z m99-127c0 27-4 54-2 79 0 15 2 30 0 46 0 3-4 2-4-2 1-15-1-30-2-45-1-27 2-54 1-79 1-4 7-4 7 1z m3-163c0 1 0 1 0 0-1 9-3 20-7 28-2 4-7 7-9 1-5-8-6-15-7-23-5-7-5-18 4-28 0 0 0 0 1-1 0-1 1-1 1-2 2-4 5-4 6-2-1-21-7-42-8-60-3-35-6-70 0-106 2-15 16-6 14 6-7 44-2 91 3 136 1 13 4 26 4 38 0 6 0 10-2 13z m21 2c6 38 3 75 2 112-2 57 4 113 4 170 0 4-3 2-3 0-1-43-5-85-6-128-2-50 6-101-2-151-2-5 4-8 5-3z m0-20c0 2-2 1-2-2 7-59-8-120 6-179 1-6 7-2 6 2-15 60 3 120-10 179z m56 272c0 18-3 38-20 48-2 1-3-3-3-5 0-1 0-2 0-4 0 0 0 0-1-1-1-3-3-8-4-11-1-4-3-9-4-14 0-2-2-4-2-6 0-3 0-4 0-6-3-9-4-19-1-27 0-1 0-3 1-4 3-20 9-39 12-57 0-4 1-6 1-10 0-13 1-24 4-36 0-3 0-6 0-9-1-32 0-63-1-93 0-7 7-6 7 0 0 68 3 139 9 208 1 1 1 2 2 4 5 7 4 15 0 23z m-32-33c1-1 2-2 3-2 5-13 6-26 7-40-3 14-7 28-10 42z m19-31c-2-15-3-30-3-47 0 5-1 10-1 15 0 2-1 4-1 5 0 19-2 37-9 55 2 0 2 0 3 0 1 0 1-1 2-1 6-2 9 0 11 4 1 0 2 0 2 1-1-11-2-22-4-32z m-24-128c1 0 1 1 0 0-1 1-1 1-2 1 0 0 0-1 0-1 1 0 2 0 2 0z m1-5c0 2-2 5-3 1-13-85-6-178 1-263 0-4 4-4 4 0-5 86-12 177-2 262z m99-13c2 4 4 7 5 11 7 14 7 30 8 45 4 60-9 126-14 185-1 17-19 17-18 0 5-47 18-110 13-165-4 38-7 77-13 114-1 5-4 2-4-1 0-2 0-4 0-6 0-5 4-3 4 0-1-30-1-84 11-111-1 5-6 0-5-3 0-1 0-2 0-2 0-1-1-3 0-3 1-2 3-3 5-5-1 0-2 0-2-2-2 5-4 11-6 14-1 1-3 1-4 0 0 1 0 1 0 3 0 1 0 1 0 2-1 22-2 45-6 67 0 4-4 3-4-1-1-25 3-50 6-75 1-15 0-31 1-46 0-3 0-7 0-10-5-7-10-14-15-20-3-2-4-3-6-7 1 20 1 41 1 61 0 34 7 67 1 102 0 1-1 0-1 0 2-30-1-59-2-90-2-26 0-53-4-80-10-17-18-42-9-57 5-7 10-13 15-16-1-49 1-97 1-146 0-3 4-3 4 0 2 48 0 97-3 145 5-3 8-4 12-4-2-27-5-53-4-81 0-3 3-4 4 0 2 26 3 54 5 82 17 4 28 33 18 50 13-4 17-16 10-35-2-18 0-38 0-57 1-31 2-64 12-93 3-4 6 0 5 4-2 14 15 212-21 231z m-20 32c0 1 0 2 0 2 0 4 0 7 0 11 0 0 0 1 0 1 1-4 3-8 5-14-1-1-2 0-5 0z m-52-114c0-51 0-104 2-155 0-1 1-1 3 0 2 51 0 104 0 155 0 6-5 4-5 0z m67-84c0 3-4 2-4-1 2-25-1-48-3-72 0-4 4-4 4-2 0 3 0 5 1 7 4 24 6 46 2 68z m32 414c-5-78 6-156 3-234 0-11 13-11 13 0 2 76-5 156-10 233 0 5-5 7-6 1z m-113-329c0-55-6-113 3-167 2-3 5-3 6 0 10 54 4 112 4 167-1 12-13 12-13 0z m222 144c4 16 0 34-13 44-1 0-1 2-2 2-1 2-2 4-3 5-5 19-11 40-14 66 0 3-3 4-4 5 0 4 0 6-1 10 5 14 2 28 2 43 1-3 1-5 3-7 0-3 1-5 2-7 0-1 0-1 0-3 0 0 0 0 0-1 0 0 0 0 0-1 0 0 0 0 0-1 1-1 1-4 2-5 3 1 4 1 5 1 1-3 3 0 3 3-1 11-2 22-5 32 0 2-3 2-3 0 0-1 0-3-1-4 0 1 0 1 0 2 0 1-1 2-1 2 0 2-1 3-1 4-1 2-4 1-5-1 0 0 0-1 0-1 0 0 0 1 0 1 0 7-8 9-9 1-1-4-1-8-1-12 0-3-2-7-2-10-1-1-2-3-2-5 0-2 1-5 1-6-1-8-1-15-1-23-2-3-3-6-3-8-2-2-2-7-3-11-2-2-3-7-3-11 1-4 3-12 6-22-6-32-14-62-20-92-1-6 5-18 10-14 2-8 4-17 7-25 15-46 12-87 15-135 0-1 0-2 2-3-2-41 2-82 10-114 5-16 20-6 16 7-18 73-7 178 3 252 0 4 0 6 1 10 13 3 14 17 9 32z m-27 177c0 1 0 1 0 2 0 0 0 2 0 2 0 2 0 0 0-4z m-3-238c0-5-1-10-1-13-4 10-8 19-12 30 6-5 11-5 15-2-1-5-1-11-2-15z m-40-99c0 8-8 8-9 0-2-48 0-95-1-142 0-3 2-5 5-2 7 18 3 38 3 56 0 29 4 59 2 88z m104 50c0-12 12-11 12 0 5 99 4 201-7 300 0 3-4 2-5-1-5-99 2-199 0-299z m-102 46c8-82 1-165 12-247 1-4 5-1 5 3-10 80 2 165-17 244 0 1 0 0 0 0z m-6 120c0 27-3 54-5 81-1 20 2 41-3 60 0 1-2 1-2 0 3-47 4-94 4-141 1-5 6-5 6 0z m-25-154c0-51-2-102-1-152 0-3 4-3 4 0 1 51 1 102-2 152 0 3-1 3-1 0z m103 140c0-5 4-5 4 0 0 43 12 99-4 140 0 1-1 0-1 0 3-48 0-93 1-140z m37-294c2 17 2 36 2 53 0 4-3 4-3 0 0-13-3-24-4-37 0 2 0 6 0 8 0 1 0 1-1 2 0 3 0 4 0 6 0 3-3 4-3 1-2-3-2-7-3-10-1 1-2 0-2-2 0-5 0-9 0-13-1 1-4 1-4-3 0-1 0-2 0-3 0 0 0 0-1-1-1-1-2-1-3-2 0 3 0 6 0 10 0 2 1 5 1 7 5 30 10 60 10 91 0 2-2 2-2 0-1-21-5-42-8-63 1 25 2 52 2 78 0 6-6 5-6 0 0-39-7-86-3-125 0-1 0-1 0-2 0 0 0 0-1 0-1 4-5 4-6 0-1-9-3-20 2-28 0-1 1-1 3-2 0-1 0-3 1-4-3 1-5 3-6 5-2 2-3-1-5-4-5 85 8 170 7 255 0 3-2 3-2 0-3-93-19-185-8-277 0-3 5-2 5 1-2 6-2 12-2 18 3-22 29-16 43-5 12 7 10 35-3 46z m-7 3c-1 0-1 0-2 0 0 2 0 6 0 8 0 0 1 1 1 1 0-1 0-1 0-2 0-1 1-2 1-2 0-1 0-3 0-4 0 0 0-1 0-1z m5-1c0 0-2 0 0 0 0 6 0 12 1 16 0-6-1-10-1-16z m-53 358c3 28 4 56-1 83 0 1-2 1-1 0 1-28 0-55-1-83 0-1 3-2 3 0z m-378 69c-2 7-2 7-5 11 0 0 0 0 0 1 0 1-1 2-1 1 0 1-1 1-1 2-2 4-6-2-5-4 0-2 2-3 2-4 0 0 0-1 0-1 0 0 0 1-2 1 0 2-1 8-2 11-1 4-5 0-5-4 0 0 0-1 0-1 0 0-1-1-1-2 0 0 0-2 0-2-1 0-1 0-1 0 0 2-1 4-1 5 0 1-2 1-2 0 0-5 1-10 2-15 0-1 0-2 0-4 0 2-1 3-1 3-1 6-3 11-4 17-1 5-6 4-6-1 2-9 3-17 5-27 1-8 1-16 1-24 1-33-3-64-3-97 0-7 7-6 7 0 0 33 3 65 2 98 1-4 2-8 4-13 0-1 0-1 1-2 1-43-1-86 0-129 1-20-6-64 8-82 0-1 1-1 1-1-1-20-1-39-1-59-1-1-2-3-2-5 0-6 0-10 0-16-2-14-4-27-11-41-2-6-5-12-5-17 0-10 2-18 3-26-1-9-1-36 13-31 1-2 1-3 1-4 0-1 1-1 1-1 2-2 3-6 6-8 3-6 6 3 4 6 12 125 6 257 0 381 0 1-1 1-1 0-2-53-6-108-8-164-8 30-3 68-6 97-1 28 0 54 0 82 0 0 0-1 0-1 1-3 5 0 4 3 1 9-1 17-3 24 0 13 0 24 0 37 0 0 2-1 3-2 0 0 0-1 1-1 1-3 2-3 3-1 2-7 2-13 3-20 3-23 8-47 10-71 0-5 5-5 5 0-4 31-11 63-15 94 2 1 2 5 2 7z m-17-28z m-3-416c-2 4-2 8-2 9 1-2 2-6 3-8-1-1-1-1-1-1z m7 34c0 3 1 5 3 6 0-3 0-7 0-9 0 1-2 2-3 3z"/>
<glyph glyph-name="essencia-floral" unicode="&#107;" d="M452 186c7 16 16 31 19 46 8 40-3 76-21 110-7 12-9 12-20 5-15-11-30-23-44-35 0 31-10 61-28 87-2 4-5 8-7 12-2 0-3 0-4 0-2-5-3-9-5-14-4-16-12-29-26-38-6-3-12-8-18-13-8 17-18 31-34 43-2 2-5 4-9 5-17 11-22 10-30-8-7-13-13-28-19-44-3 3-5 5-7 8-14 12-26 25-40 36-10 8-17 5-22-7-5-12-9-25-14-38-9 2-12-3-13-11-3-18-5-35-8-54-13 3-28 6-44 8-13 1-26-2-39-3-6 0-7-4-7-10 0-19 7-37 19-51 9-12 20-22 31-33-25-12-47-29-63-54 0-1 0-2 0-4 41-40 139-23 139-23l8 3c0 0 22 7 34 10 11 4 24 8 36 11 3 1 6 1 10 0 12-1 26-2 38-3 3 0 6 1 8 2 8 9 16 7 26 3 13-6 29-9 43-13 6-1 21-7 21-7l16-5c0 0 58-10 86-2 18 5 33 13 44 28 0 1 0 2 0 4-14 21-33 38-56 49z m-209 208c22-10 40-25 48-47 2-5-1-10-2-15-2-4-5-8-7-12-13 7-26 13-39 20 0 18 0 35 0 54z m-99-17c3 7 8 8 13 3 13-11 26-22 40-33-8-5-6-8-1-11 22-16 34-47 28-76-23 20-46 40-36 77-2 0-3 1-4 1-9-6-19-12-29-20-6 4-13 9-21 15-1 1-2 4-2 7 4 13 8 25 12 37z m41-107c-10 4-20 8-31 12-2 1-3 3-3 6 1 15 12 32 26 39 3-19 5-37 8-57z m-39-90c-18 6-36 12-54 20-17 7-30 21-39 38-8 13-18 24-28 37 19 4 37 3 56-1 0 0 0 0 0 0 17-1 27-8 31-26 4-26 19-46 36-65 0-2-1-3-2-3z m-31 130c11-21 29-31 50-39 13-5 26-11 39-18 18-10 27-27 29-48 0-9 0-17 2-25 3-19 13-35 32-45-76-17-173 96-152 175z m149-128c-25 21-33 47-31 77 1 30-3 56-25 78 18 3 59-10 69-23 1-2 2-4 2-6-7-22-4-44-1-66 2-21-2-41-14-60z m5-3c16 24 17 51 12 80-7 41 7 75 42 98 15 10 22 24 28 42 15-21 25-42 28-66 6-53-13-96-51-132-16-16-31-32-46-47-4 7-8 16-13 25z m156-5c-20-15-42-23-67-25-23-2-47-3-73-5 4 6 7 10 10 15 17 21 36 40 59 53 12 7 25 13 39 16 42 11 63 35 64 78 0 1 0 2 0 4 20-47 15-104-32-136z"/>
<glyph glyph-name="essencia-frutada" unicode="&#108;" d="M171 318c0-3 6-6 11-6 6 0 10 3 10 6 0 3-5 5-10 5-6 0-11-2-11-5z m55-47c-7 0-11-2-11-6 0-3 5-5 11-5 5 0 10 2 10 5 0 2-4 6-10 6z m-83 0c0-4 5-6 11-6 6 0 10 2 10 6 0 3-5 5-10 5-6 0-11-2-11-5z m174-38c0 3-6 5-11 5-5 0-10-2-10-5 0-3 5-5 10-5 5 0 11 2 11 5z m16-52c0-3 6-5 11-5 6 0 10 2 10 5 0 3-5 5-10 5-5 0-11-2-11-5z m-66 5c0-3 6-5 11-5 5 0 10 2 10 5 0 3-5 5-10 5-5 0-11-2-11-5z m121-4c0-3 5-5 10-5 6 0 11 2 11 5 0 3-6 5-11 5-5 1-10-2-10-5z m-7 57c-6 0-10-2-10-5 0-3 5-5 10-5 7 0 11 2 11 5 0 2-4 5-11 5z m-21-104c0-3 6-5 11-5 5 0 10 2 10 5 0 3-5 5-10 5-5 0-11-2-11-5z m-134 93c-7 0-11-2-11-5 0-4 5-6 11-6 5 0 10 2 10 6 0 3-4 5-10 5z m236-12c0 3-5 6-11 6-5 0-10-3-10-6 0-3 5-5 10-5 6 0 11 2 11 5z m-32 55c0 3-5 5-10 5-6 0-10-2-10-5 0-4 5-6 10-6 5-1 10 2 10 6z m-76 32c-6 0-10-2-10-5 0-3 5-5 10-5 6 0 11 2 11 5 1 3-5 5-11 5z m-37-180c6 0 10 2 10 6 0 3-5 5-10 5-7 0-11-2-11-5-1-3 4-6 11-6z m184 219c-4 7-7 14-9 23-5 13-11 26-23 35-12 11-27 20-39 32-16 16-34 24-57 21-2 0-5 2-7 3-9 6-17 5-26 4-7-1-12-3-18-5-1 4-2 7-2 11-1 9-2 19-4 28-3 15-36 21-49 16-18-8-15-21-15-42-6 4-13 7-20 8-35 4-16-21-78-37-1 0 5-5 13-13-23-10-40-29-51-53-3-7-6-15-10-22-21-36-20-77-16-116 0-2 1-3 1-4-28 6-55 12-81 21-3 1-6 4-9 1-1-51-1-104 29-161 46-91 152-118 245-52 5 3 14 10 14 10l42 6-9 13c0 0-196 0-272 103 117-88 268-93 268-93 0 0-6 9-10 17-38 62-84 100-140 114-18 4-36 9-54 14-7 27-7 56-2 84 3 18 12 34 19 50 8 21 21 37 38 48 4 4 10 7 15 9 15-10 31-19 45-21 2-8 6-19-1-48-1-2 48 20 57 41 1-6 3-10 7-15 16-22 19 3 60-24 1-1-1 21-7 41 18-3 13 15 57 16 1 0-5 9-13 17 6-2 13-4 20-10 13-13 28-24 41-36 9-6 14-14 17-24 1-4 3-9 5-13 12-22 10-46 8-70-2-34-15-64-30-93-1-2-1-3-2-4-19-19-35-42-59-56-19-12-60-27-60-27l18-29c0 0 11 2 24 9 10 5 22 11 32 18 9 5 18 11 25 17 13 12 23 25 35 36 9 10 17 22 22 36 17 39 24 81 24 125-1 16-2 29-8 41z m-218 90c0 0-5 9-13 19-6 19 1 31 20 43 4 2 6-31 11-57-7-3-18-7-18-5z"/>
<glyph glyph-name="essencia-natural" unicode="&#109;" d="M468 23c-9 2-42 10-40 23 8 39 49 131-51 269-75 105-184 71-267 188-3 4-8 10-13 9-12-25-24-50-33-76-20-53-33-109-28-180 13-164 156-276 342-245 9 2 21 6 29 6 11-1 22-9 33-12 12-4 23-8 36-7-5 7-6 17-8 25z m-55 16c0 0-34 30-50 40-55 9-118-6-157-20 35 20 74 35 131 31 5 2 8 8 7 11-7 12-36 29-44 39-44 12-93 7-129-5 32 16 69 25 120 20 4-4-28 24-41 38-25 29-86 15-123 8 27 13 69 19 107 11-5 8-13 14-22 20l-7 6c-33 21-79 34-132 27 21 9 83 14 111 9-16 49-41 107-51 117 4 0 27-34 27-34 17-18 27-44 31-50-1 30 2 64 13 84-13-52-5-99 13-134l5-8c6-9 11-17 18-24-3 40 6 81 22 106-11-36-22-93-7-127 8-19 39-45 36-40 0 51 13 87 32 118-15-35-25-91-17-136 9-9 23-22 33-29 3-2 8-10 11-5 2 56 21 94 44 126-19-38-33-83-30-139 8-6 49-58 49-58z"/>
<glyph glyph-name="essencia-oriental" unicode="&#110;" d="M139 257c7 25-31 76-61 64 7-24 23-46 61-64z m-85 5c32-20 59-24 84-18-32 22-62 37-84 18z m97 250c7-32 27-80 57-69-12 31-26 58-57 69z m63-34c6-53 8-104 0-155l34 0c-7 54-5 100 0 155z m148-6c-16-26-54-60-40-98 14 30 53 62 40 98z m57-104c-13 11-51-2-63 12 43 9 67 36 92 63-59-10-96-41-126-81 30-8 75-8 97 6z m-148 47c6-42 9-92 0-132l40 0c-10 34-8 96 0 132z m-57-98c4-54 9-102 0-155l34 0c-10 54-2 100 0 155z m57-40c4-45 10-95 0-138l40 0c-11 37-6 99 0 138z m-57-126c6-53 8-104 0-155l34 0c-7 54-5 100 0 155z m57-17c4-44 10-95 0-138l40 0c-11 37-6 100 0 138z m-135 86c13-23 2-71 6-104l28 0c-4 41-7 74 6 109-12-3-37 7-40-5z m29-110c-6-17-27 13-28-12 13-22 2-70 6-103l28 0c-10 44 7 78-6 115z m-108 110c13-23 2-71 6-104l29 0c-5 41-8 74 4 109-11-3-37 7-39-5z m29-110c-7-17-28 13-29-12 13-22 2-70 6-103l29 0c-10 44 6 78-6 115z m269 110c13-23 2-71 6-104l29 0c-4 41-7 74 6 109-13-3-39 7-41-5z m29-110c-7-17-28 13-29-12 13-22 2-70 6-103l29 0c-10 44 7 78-6 115z m62 166c-22-6-38-17-41-44 26-4 63 23 41 44z m-67 16c-8-21-3-41 13-58 9 22 13 43-13 58z"/>
<glyph glyph-name="fechar" unicode="&#111;" d="M510 489l-24 23-232-233-231 233-23-23 233-231-233-232 23-24 231 233 232-233 24 24-233 232z"/>
<glyph glyph-name="logotipo" unicode="&#112;" d="M213 243l-7 0c-2 0-3 0-3-2l-13-26c-1 0-1-1-1-1-1 0-1 1-1 1l-13 26c-1 2-2 2-3 2l-7 0c-2 0-3-1-3-3l0-59c0-1 0-1 1-1l9 0c0 0 1 1 1 2l0 39c0 1 0 1 0 1 0 0 1 0 1 0l8-17c0 0 2-1 3-1l8 0c2 0 3 1 3 1l8 17c1 0 1 0 1 0 0 0 0 0 0-1l0-39c0-1 1-2 2-2l8 0c1 0 2 0 2 1l0 59c-1 2-3 3-4 3z m32-14c-6 0-10-1-14-2-1 0-2 0-2-1l0-6c0-1 1-1 2-1l1 0c3 0 8 0 14 0 5 0 7-1 7-6l0-4-5 0c-15 0-21-5-21-15l0 0c0-12 8-14 14-14 4 0 8 1 12 3l0-1c0-1 1-2 2-2l7 0c1 0 2 1 2 2l0 31c0 10-6 16-19 16z m8-38c-3-2-6-3-9-3-4 0-6 2-6 6l0 0c0 5 2 7 10 7l5 0 0-10z m46 38c-3 0-8-1-12-4l0 2c0 0-1 1-2 1l-7 0c-1 0-2-1-2-1l0-45c0-1 1-2 2-2l7 0c1 0 2 1 2 2l0 34c4 2 7 3 12 3 1 0 2 1 2 2l0 6c0 1-1 2-2 2z m20-1l-8 0c-1 0-2-1-2-1l0-45c0-1 1-2 2-2l8 0c1 0 1 1 1 2l0 45c0 0 0 1-1 1z m0 17l-8 0c-1 0-2 0-2-1l0-8c0-1 1-1 2-1l8 0c1 0 2 0 2 1l0 8c0 1-1 1-2 1z m30-16c-6 0-11-1-14-2-1 0-2 0-2-1l0-6c0-1 1-1 2-1l0 0c3 0 8 0 14 0 5 0 7-1 7-6l0-4-5 0c-15 0-21-5-21-15l0 0c0-12 8-14 15-14 4 0 8 1 12 3l0-1c0-1 1-2 1-2l8 0c0 0 1 1 1 2l0 31c1 10-5 16-18 16z m8-38c-3-2-6-3-9-3-4 0-6 2-6 6l0 0c0 5 2 7 10 7l5 0 0-10z m47 38c-5 0-8-1-13-4l0 2c0 0-1 1-2 1l-7 0c-1 0-2-1-2-1l0-45c0-1 1-2 2-2l7 0c1 0 2 1 2 2l0 34c3 2 7 3 10 3 6 0 7-2 7-9l0-28c0-1 1-2 2-2l7 0c1 0 2 1 2 2l0 28c0 11-2 19-15 19z m46 0c-14 0-20-9-20-21l0-7c0-13 6-21 20-21 13 0 20 9 20 21l0 7c1 12-7 21-20 21z m9-28c0-7-3-12-9-12-6 0-9 5-9 12l0 6c0 7 3 12 9 12 6 0 9-5 9-12z m46 5l-11 7c-2 1-4 2-4 3 0 3 2 3 6 3 5 0 12 0 14-1l1 0c0 0 1 1 1 2l0 5c0 1-1 2-1 2-5 1-9 2-16 2-10 0-16-5-16-13 0-5 3-9 7-12l12-7c3-2 4-3 4-5 0-2-1-4-6-4-3 0-11 1-15 1l0 0c-1 0-1 0-1-1l0-5c0-1 0-2 1-2 5-1 12-2 16-2 11 0 16 6 16 13 0 5-1 9-8 14z m-72 112l5-3-1 6 5 4-6 1-3 6-3-6-6 0 5-5-1-5z m20-2l5 3 5-3 0 5 4 5-6 0-3 6-2-6-6 0 4-5z m29 2l5-3-1 6 4 4-5 1-3 6-3-6-6 0 4-5-1-5z m18-2l5 3 5-3-1 5 4 5-6 0-2 6-2-6-6 0 4-5z m-322-52c3 0 7 1 11 1 1 0 2 1 2 2l0 0c0 1-1 1-2 1 0 0 0 0 0 0-4-1-8-1-11-1-8 0-14 3-14 15l0 2 25 0c1 0 2 0 2 1l0 2c0 11-5 18-15 18-10 0-15-8-15-18l0-5c0-14 8-18 17-18z m-14 23c0 8 4 14 12 14 8 0 12-5 12-14l0-1-24 0z m51-2l-5 3c-4 2-7 4-7 7 0 6 4 7 8 7 4 0 9-1 11-1l0 0c1 0 1 0 1 1l0 1c0 0 0 1-1 1-3 0-5 0-11 0-5 0-11-2-11-9 0-5 4-7 9-10l5-3c6-3 7-5 7-8 0-6-4-7-9-7-3 0-7 0-11 1l0 0c-1 0-2-1-2-1l0-1c0-1 1-1 2-1 3-1 8-1 11-1 7 0 13 2 13 10-1 5-4 7-10 11z m19-20c3-1 8-1 11-1 7 0 13 2 13 10 0 5-3 7-10 11l-5 2c-4 3-7 5-7 8 0 5 4 6 9 6 4 0 8 0 10 0l0 0c1 0 2 0 2 1l0 0c0 1-1 1-2 1-2 1-5 1-10 1-6 0-12-2-12-9 0-5 4-8 9-11l5-2c6-4 8-5 8-8 0-6-4-8-10-8-3 0-7 1-11 1l0 0c-1 0-1 0-1-1l0 0c0-1 0-1 1-1z m60 0c1 0 1 1 1 2l0 0c0 1 0 1-1 1 0 0 0 0-1 0-3-1-7-1-10-1-8 0-14 3-14 15l0 2 25 0c1 0 1 0 1 1l0 2c0 11-4 18-14 18-10 0-15-8-15-18l0-5c0-14 7-18 17-18 3 0 7 0 11 1z m-25 22c0 8 4 14 12 14 8 0 11-5 11-14l0-1-23 0z m63-23l0 0c1 0 2 1 2 2l0 24c0 11-6 14-13 14-4 0-8-1-12-3l0 1c0 1 0 2-1 2l-1 0c-1 0-1-1-1-2l0-36c0-1 0-2 1-2l1 0c1 0 1 1 1 2l0 32c4 2 8 3 12 3 5 0 10-2 10-11l0-24c-1-1 0-2 1-2z m35 40c-3 0-7 0-9 0-10 0-14-7-14-17l0-5c0-10 4-18 14-18 2 0 6 0 9 1 1 0 1 0 1 1l0 1c0 0 0 1-1 1l0 0c-3-1-6-1-9-1-8 0-11 6-11 15l0 5c0 9 3 15 11 15 3 0 6-1 9-1l0 0c1 0 1 0 1 1l0 1c0 0 0 0-1 1z m26-40c3 0 7 1 11 1 1 0 2 1 2 2l0 0c0 1-1 1-2 1 0 0 0 0 0 0-4-1-8-1-11-1-7 0-13 3-13 15l0 2 24 0c1 0 2 0 2 1l0 2c0 11-5 18-15 18-9 0-15-8-15-18l0-5c0-14 8-18 17-18z m-13 23c0 8 3 14 12 14 8 0 11-5 11-14l0-1-23 0z m52 17c-1 0-1-1-1-1l0-37c0-1 0-2 1-2l1 0c1 0 1 1 1 2l0 37c0 0 0 1-1 1z m29 0c-4 0-8-1-12-3l0 1c0 1 0 2-1 2l-1 0c0 0-1-1-1-2l0-36c0-1 1-2 1-2l1 0c1 0 1 1 1 2l0 32c4 2 8 3 12 3 6 0 10-2 10-11l0-24c0-1 1-2 2-2l0 0c1 0 2 1 2 2l0 24c-1 10-7 14-14 14z m50-40l1 0c1 0 1 1 1 2l0 24c0 11-6 14-13 14-3 0-8-1-12-3l0 1c0 1 0 2-1 2l-1 0c-1 0-1-1-1-2l0-36c0-1 0-2 1-2l1 0c1 0 1 1 1 2l0 32c4 2 8 3 12 3 5 0 10-2 10-11l0-24c0-1 0-2 1-2z m-449 40c-34 0-62-28-62-62 0-34 28-62 62-62 34 0 62 28 62 62 0 34-28 62-62 62z m47-53c0-1 0-1 0-2 0-4-3-7-7-7l-65 0c-4 0-7-3-7-7l1-2c4-14 16-24 31-24 10 0 18 4 24 10 2 3 7 3 10 0 3-3 3-8 0-10-9-9-20-14-34-14-26 0-47 21-47 47 0 26 21 47 47 47 23 0 42-16 47-38z m-77 6c0 0 3 2 10 4 12 2 18-3 28-4 12-2 23 5 23 5-6 0-16 13-31 13-13 0-27-9-30-18z"/>
<glyph glyph-name="logotipo-e" unicode="&#113;" d="M256 512c-142 0-256-114-256-256 0-141 114-256 256-256 142 0 256 114 256 256-1 142-115 256-256 256z m163-256l-264 0c-17 0-30-13-30-31l1-8c17-57 69-98 131-98 37 0 72 15 96 40 12 12 30 12 42 0 12-12 12-30 0-42-36-36-83-58-138-58-108 0-196 87-196 196 0 108 87 196 196 196 96 0 175-69 193-159l0-1c0-2 0-3 0-6-1-15-14-29-31-29z m-285 60c0 0 12 12 40 16 51 9 74-12 117-16 47-6 95 22 95 22-27 0-69 54-130 54-53 0-110-38-122-76z"/>
<glyph glyph-name="logotipo-simbolo-grande" unicode="&#114;" d="M259 391c-27 0-43-8-70-16l-189-114 189-113c16-8 43-16 70-16 0 0 2 0 2 0 0 0 3 0 3 0 27 0 51 8 70 16l189 113-189 114c-29 8-46 16-73 16 0 0 0 0-2 0"/>
<glyph glyph-name="logotipo-simbolo-pequeno" unicode="&#115;" d="M247 384c-25 0-42-9-64-17l-183-107 179-106c17-9 43-17 64-17 26 0 51 8 64 17l179 106-170 107c-26 8-43 17-69 17 5 0 0 0 0 0z"/>
<glyph glyph-name="playvideo" unicode="&#116;" d="M68 17l0 495 362-249z m21 454l0-416 304 208z"/>
<glyph glyph-name="seta-idioma-moeda" unicode="&#117;" d="M461 372l-214-209-214 209-33 0 247-242 246 242z"/>
<glyph glyph-name="seta-reserva-calendario" unicode="&#118;" d="M132 512l0-34 223-224-221-224-2-2 0-33 255 257z"/>
<glyph glyph-name="seta-reserva-selecao" unicode="&#119;" d="M470 396l-209-205-205 205-56 0 261-256 260 256z"/>
<glyph glyph-name="seta-scroll" unicode="&#120;" d="M0 384l21 0 233-229 231 229 21 0-252-250z"/>
<glyph glyph-name="social-facebook" unicode="&#121;" d="M299 378c0 41 14 53 93 47l0 81c-148 20-203-10-201-157l0-14-73 0 0-89 73 0 0-244 106 0 0 244 81 0 14 89-93 0z"/>
<glyph glyph-name="social-instagram" unicode="&#122;" d="M507 309c0 39-2 80-10 107-23 70-82 96-176 96-51 0-106 2-154-2-82-3-124-22-150-78-22-48-17-123-17-188 0-78 0-138 27-177 21-31 52-50 96-57 44-7 97-5 148-5 53 0 104-2 142 10 36 12 67 40 80 72 21 50 14 155 14 222z m-94-244c-36-19-104-14-159-14-83 0-162-7-193 46-20 36-15 103-15 159 0 80-7 166 50 195 22 12 49 12 78 13 36 2 85 2 128 2 67 0 121-3 145-48 17-32 14-106 14-160 0-87 7-164-48-193z m-32 358c-12-3-19-12-21-17-17-42 51-60 58-20 5 25-14 42-37 37z m-142-36c-43-5-73-27-91-51-11-15-27-51-23-90 6-94 121-152 204-94 50 34 77 118 35 183-23 27-65 59-125 52z m75-189c-48-48-140-17-145 56-2 48 31 82 75 87 82 11 123-90 70-143z"/>
<glyph glyph-name="social-twitter" unicode="&#65;" d="M503 417c-19-7-38-13-59-17 21 13 38 32 45 57-19-11-41-21-64-25-19 21-46 33-76 33-57 0-102-46-102-103 0-7 0-15 1-23-87 4-163 44-214 107-7-16-13-33-13-52 0-36 19-66 45-85-17 0-32 4-45 11 0 0 0 0 0-1 0-50 36-91 83-101-9-2-19-2-28-2-6 0-13 0-19 2 13-42 51-70 97-72-36-28-80-44-127-44-8 0-18 0-25 2 45-28 100-45 157-45 190 0 294 157 294 294 0 4 0 9 0 13 17 11 34 30 50 51z"/>
<glyph glyph-name="social-youtube" unicode="&#66;" d="M325 314c10 0 19 6 30 18l0-17 28 0 0 147-28 0 0-112c-7-8-10-13-16-13-4 0-5 2-7 5l0 120-28 0 0-115c0-10 2-17 3-22 4-6 10-11 18-11z m-119 49c0-15 4-26 9-33 6-10 20-15 31-15 12 0 23 5 31 15 5 7 9 18 9 33l0 52c0 14-4 28-9 34-6 10-18 15-29 15-13 0-23-3-30-15-8-6-12-18-12-34z m29-3l0 58c-2 15 3 21 11 21 8 0 13-6 12-21l0-58c1-15-4-21-12-21-10 0-13 6-11 21z m-88-43l30 0 0 79 36 116-31 0-20-76-22 76-29 0c6-18 36-116 36-116z m149-140c-4 0-9-2-14-7l0-82c5-4 9-7 14-7 6 0 10 5 10 18l0 60c0 14-4 18-10 18z m90 0c-8 0-11-4-11-17l0-15 23 0 0 15c0 13-3 17-12 17z m68 53c0 0-3 28-16 39-15 17-33 17-42 17-57 3-142 3-142 3 0 0-86 0-142-3-8-2-24-2-41-17-12-11-16-39-16-39 0 0-5-33-5-65l0-31c0-33 3-66 3-66 0 0 3-28 16-40 15-16 37-15 45-18 33-3 139-3 139-3 0 0 86 0 142 5 8 1 25 1 41 16 12 12 17 40 17 40 0 0 3 33 3 66l0 31c1 32-2 65-2 65z m-315-169l-27 0 0 157-29 0 0 26 85 0 0-26-29 0z m99 0l-27 0 0 15c-10-12-18-17-28-17-8 0-13 4-16 10 0 4-2 10-2 20l0 108 27 0 0-111c0-3 1-5 5-5 4 0 9 5 14 11l0 105 27 0z m94 41c0-13-2-21-3-28-4-10-10-15-20-15-8 0-18 5-27 15l0-13-24 0 0 183 24 0 0-59c9 10 17 15 27 15 10 0 16-5 20-17 1-5 3-15 3-28z m91 24l-50 0 0-25c0-13 4-18 12-18 6 0 10 3 11 9 0 2 0 7 0 17l27 0 0-3c0-9 0-14-2-17-1-5-3-10-6-15-7-10-17-15-30-15-13 0-23 5-30 14-5 6-8 16-8 31l0 48c0 15 3 26 8 33 7 10 17 15 30 15 13 0 21-5 30-15 5-7 8-18 8-31z"/>
<glyph glyph-name="vermais-grande" unicode="&#67;" d="M502 266l-240 0 0 238c0 5-4 8-8 8-4 0-8-4-8-8l0-237-238 0c-5 0-8-4-8-8 0-4 4-8 8-8l237 0 0-237c0-5 4-8 8-8 4 0 8 4 8 8l0 236 241 0c5 0 8 4 8 8 0 4-3 8-8 8z"/>
<glyph glyph-name="vermais-medio" unicode="&#68;" d="M512 264l-248 0 0 248-16 0 0-248-248 0 0-16 248 0 0-248 16 0 0 248 248 0z"/>
<glyph glyph-name="vermais-pequeno" unicode="&#69;" d="M512 273l-239 0 0 239-34 0 0-239-239 0 0-34 239 0 0-239 34 0 0 239 239 0z"/>
<glyph glyph-name="360-1" unicode="&#70;" d="M497 214c-2 1-3 2-3 3 0 0 0 1-1 1l0 0-1 1c-5 6-10 13-15 21-1 1-3 2-5 2-4 0-9-3-15-6-2-2-5-3-9-4-1-1-4-2-5-3-7-3-15-6-16-9 0-1-1-2 0-4 1 0 3-1 4-1 5 0 9 3 14 5 5 3 10 6 15 6 0 0 1 0 1 0l5 0-1-6c-6-37-25-59-42-75-5-6-11-11-19-14-19-10-38-19-65-19-3 0-7 0-10 1-1-1-2-1-3-1-1 0-2 0-3 1-1 0-2-1-3-1-4 0-11 1-14 3-2 0-4 1-5 2-46 12-80 45-94 88 0 3-1 5-2 8 0 3-1 6-2 8 1 0 2 0 4 0 8 0 17 1 24 4 7 3 14 7 19 12 5 5 9 11 12 18 4 8 5 15 5 23 0 9-1 16-4 22-3 7-6 13-12 17-4 5-10 9-17 11-6 3-13 4-21 4-8 0-16-1-23-4-7-3-13-7-18-12 2 3 4 6 6 9 2 2 5 6 7 9l54 70-11 0c-3 0-5-1-6-2l-50-67c-8-11-14-21-17-30-4-9-5-17-5-24 0-9 1-18 4-25 2-7 6-14 11-19 5-5 11-9 18-12 4-1 9-3 13-3 0-18 8-34 16-48 1-2 2-4 4-6 1-1 2-2 2-4 0 0 0 0 1 0l1 0 0-1c4-3 6-8 9-12 19-21 43-36 75-44l13-2c2 0 3 0 4 0 2 0 5 0 7-1 2 0 4 0 5-1l1 0c30 0 56 7 80 23 4 3 8 7 13 9 22 19 38 43 47 74l2 11 4 0c5 0 6-3 7-5l1 0 1-1c4-5 8-11 12-17 1-1 2-1 2-1 2 0 4 1 4 3 2 2 1 3 0 4-5 3-8 6-10 11z m-310 21c-6 2-10 6-14 10-4 4-7 9-9 14-2 6-4 12-4 19 0 5 2 11 4 16 2 5 5 10 9 14 4 4 9 8 15 11 5 2 12 4 20 4 6 0 12-2 18-4 6-2 10-5 14-9 4-4 7-8 9-14 2-6 4-12 4-19 0-7-2-12-4-18-2-6-5-10-9-14-4-4-10-8-15-10-6-2-13-3-20-3-6 0-12 1-18 3z m-110 83c5 1 9 3 14 6 5 2 8 5 11 9 4 3 6 8 8 12 2 5 3 10 3 16 0 7-1 14-4 20-3 5-7 10-11 14-5 4-10 7-17 9-6 2-12 3-19 3-7 0-14-1-21-4-6-2-12-5-17-9-5-4-9-9-11-16-4-5-6-13-7-20l6-1c1 0 1 0 1 0 2 0 4 1 5 4 1 5 2 10 5 14 3 5 6 8 9 11 4 3 8 6 13 8 6 1 11 3 16 3 6 0 11-2 15-3 5-1 9-4 13-7 3-2 6-6 8-11 3-5 4-10 4-16 0-6-1-11-3-16-2-5-5-9-9-12-4-4-9-6-15-8-6-3-13-3-21-4l0-9c10 0 19-1 26-3 6-1 11-4 15-8 4-3 7-7 9-12 2-5 3-10 3-16 0-4-1-9-3-14-2-5-5-9-9-13-4-4-8-7-14-9-5-3-12-4-20-4-5 0-11 0-14 1-5 1-8 3-12 5-3 2-6 4-8 6-2 2-4 5-6 7-1 3-2 5-3 7-1 3-2 4-2 6l-1 2c-1 1-1 3-2 3-1 0-2 0-3 0-1 0-2 0-3 0l-5-3c2-5 4-11 6-16 3-6 6-10 11-15 4-5 10-8 17-11 7-3 15-4 25-4 9 0 16 1 23 4 7 3 13 6 18 11 5 5 9 10 13 16 2 8 3 15 3 22 0 12-3 22-10 29-7 7-17 13-30 16z m232-74c6-7 12-13 20-17 8-4 17-6 25-6 9 0 18 2 25 6 8 4 15 9 21 17 6 8 11 17 14 29 4 11 5 26 5 41 0 15-1 30-4 42-4 11-8 21-15 29-6 8-12 13-20 17-8 4-16 5-25 5-9 0-18-1-25-5-7-4-15-9-21-17-5-8-10-17-13-29-4-12-5-26-5-41 0-16 1-30 5-41 2-13 7-23 13-30z m-2 108c2 10 6 18 11 25 5 7 10 12 17 15 6 3 13 5 19 5 7 0 14-2 20-5 7-3 12-8 17-15 4-7 8-15 11-25 3-11 4-23 4-38 0-15-1-27-4-38-3-10-7-18-11-25-5-7-10-11-17-14-6-3-13-5-20-5-6 0-13 2-19 5-7 3-12 8-17 14-5 7-9 15-11 25-3 11-4 23-4 38-1 15 1 27 4 38z m204 32c-2 5-4 9-8 12-3 3-6 6-11 8-4 2-10 3-15 3-6 0-11-1-16-3-4-2-8-5-11-8-3-3-6-7-7-12-2-5-3-10-3-16 0-6 1-11 3-16 1-4 4-8 7-12 3-3 7-5 11-8 5-1 10-3 16-3 5 0 11 2 15 3 5 2 9 5 11 8 4 4 6 8 8 12 2 5 2 10 2 16 0 6 0 11-2 16z m-14-39c-4-6-11-9-20-9-9 0-16 3-20 9-5 5-7 13-7 23 0 9 2 17 7 22 4 6 11 9 20 9 9 0 16-3 20-9 5-5 7-13 7-22-1-10-3-18-7-23z"/>
<glyph glyph-name="comodidades-babysitter" unicode="&#71;" d="M500 163c-12 13-31 13-43 2-4-4-7-7-11-10l-23 51c40 28 66 73 66 126l0 59c0 5-5 10-10 10l-16 0 0 24 9 0c17 0 31 15 31 32 0 17-14 31-31 31l-433 0c-18 0-32-15-32-32 0-17 15-32 32-32l9 0 0-24-16 0c-5 0-10-5-10-10l0-60c0-51 26-97 66-125l-23-51c-4 2-8 6-11 9-13 11-32 11-43-1-6-6-10-14-10-23 0-9 4-17 11-22 67-60 154-91 244-91 90 0 177 33 244 91 6 6 10 13 11 22-1 10-5 18-11 24z m-70-20c-6-4-12-9-18-13l-26 57c8 2 14 4 20 8z m-35-21c-43-22-91-34-140-34-49 0-98 12-140 34l28 61c9-3 20-4 31-4l162 0c11 0 21 1 32 4z m-356 322c-6 0-12 5-12 12 0 7 5 12 12 12l433 0c7 0 12-5 12-12 0-7-5-12-12-12z m405-20l0-24-60 0 0 24z m-80 0l0-24-59 0 0 24z m-79 0l0-24-59 0 0 24z m-79 0l0-24-60 0 0 24z m-79 0l0-24-60 0 0 24z m-87-92l0 50 429 0 0-50c0-74-59-133-133-133l-163 0c-73 0-133 59-133 133z m64-136c6-3 13-6 19-8l-25-56c-7 3-13 7-19 12z m382-64c-63-56-146-87-231-87-86 0-167 31-232 87-2 2-3 5-3 8 0 4 1 6 3 9 3 2 5 3 9 3 2 0 6-1 8-3 60-53 136-81 215-81 79 0 156 30 216 82 4 5 12 4 17 0 2-2 3-6 3-9-1-4-2-7-5-9z"/>
<glyph glyph-name="comodidades-business" unicode="&#72;" d="M513 477l-248 0 0 26c0 5-4 8-8 8-4 0-9-3-9-8l0-26-248 0 0-359 236 0-105-105c-3-3-3-9 0-12 2-2 4-2 6-2 2 0 4 1 6 2l105 105 0-81c0-6 4-9 8-9 4 0 8 4 8 9l0 81 106-105c2-2 4-2 6-2 2 0 4 1 6 2 3 3 3 9 0 12l-104 106 235 0z m-16-342l-480 0 0 326 480 0z m-395 89c19 0 34 16 34 34 0 8-3 16-8 23l12 12c6-5 14-8 23-8 8 0 16 3 22 8l13-12c-5-7-9-14-9-23 0-18 16-34 34-34 19 0 34 16 34 34 0 6-2 12-5 17l59 60c6-5 14-8 23-8 8 0 16 3 22 8l38-38c-5-6-8-13-8-23 0-18 15-33 34-33 18 0 34 15 34 33 0 19-16 34-34 34-4 0-8-1-11-2l-42 42c1 4 2 7 2 11 0 19-16 34-34 34-19 0-34-15-34-34 0-4 1-8 2-11l-61-61c-5 3-12 5-18 5-4 0-8-1-11-2l-18 17c1 4 2 7 2 11 0 19-16 34-34 34-19 0-34-15-34-34 0-4 1-8 2-11l-16-16c-4 1-7 2-12 2-18 0-33-15-33-34 0-18 14-35 32-35z m317 69c9 0 17-7 17-18 0-9-7-17-17-17-9 0-18 7-18 17 1 10 9 18 18 18z m-85 85c9 0 17-8 17-18 0-9-7-17-17-17-9 0-18 7-18 17 0 11 9 18 18 18z m-112-103c9 0 18-7 18-17 0-10-8-17-18-17-10 0-17 7-17 17 0 10 8 17 17 17z m-59 61c9 0 17-8 17-18 0-9-7-17-17-17-9 0-18 7-18 17 0 10 9 18 18 18z m-61-61c10 0 18-7 18-17 0-10-7-17-18-17-9 0-17 7-17 17 0 10 8 17 17 17z"/>
<glyph glyph-name="comodidades-estacionamento" unicode="&#73;" d="M52 157c0 0 0-1 0-2l0-38c0-21 17-38 38-38l11 0c21 0 38 17 38 38l0 27 236 0 0-27c0-21 18-38 38-38l11 0c21 0 38 17 38 38l0 38c13 10 22 25 22 42l0 109c0 22-13 41-33 50l0 1-24 112c-6 25-28 43-54 43l-238 0c-25 0-47-18-52-43l-24-112c0-1 0-2 0-5-16-9-27-27-27-46l0-107c-2-17 8-32 20-42z m65-39c0-10-7-16-16-16l-11 0c-10 0-16 8-16 16l0 30c5-2 11-3 16-3l27 0z m323 0c0-10-7-16-16-16l-11 0c-9 0-16 8-16 16l0 27 33 0c4 0 8 0 11 1l0-28z m-336 346c3 15 15 26 31 26l238 0c15 0 28-11 32-26l23-103-348 0z m-52-158c0 18 15 33 33 33l345 0c19 0 33-15 33-33l0-107c0-19-14-33-33-33l-340 0c-17 0-38 14-38 33z m59-80c18 0 33 14 33 32 0 19-15 33-33 33-18 0-33-14-33-33 1-18 16-32 33-32z m0 42c6 0 11-5 11-11 0-6-5-11-11-11-6 0-11 5-11 11 0 6 5 11 11 11z m291-42c19 0 33 14 33 32 0 19-14 33-33 33-18 0-33-14-33-33 0-18 15-32 33-32z m0 42c6 0 11-5 11-11 0-6-5-11-11-11-6 0-11 5-11 11 0 6 5 11 11 11z m-402-247l0-20 513 0 0 20z"/>
<glyph glyph-name="comodidades-lavandaria" unicode="&#74;" d="M425 512l-343 0c-32 0-58-26-58-57l0-400c0-32 26-57 58-57l343 0c32 0 58 25 58 57l0 400c0 31-26 57-58 57z m35-457c0-20-16-34-35-34l-343 0c-20 0-34 16-34 34l0 323 413 0 0-323z m0 345l-414 0 0 55c0 19 16 34 34 34l344 0c20 0 34-16 34-34l0-55z m-206-322c68 0 124 56 124 126 0 69-56 124-124 124-70 0-125-56-125-124 0-69 55-126 125-126z m-102 105c-1 6-2 13-2 21 0 57 46 103 104 103 53 0 97-40 102-92-26 17-68 29-106-10-42-43-88-29-95-23-1 1-1 1-3 1z m19-29c6-2 18-2 31 1 19 3 42 12 64 35 41 42 85 0 88-2 0 0 1 0 1-1-9-49-50-87-101-87-39 0-75 22-92 55 4 0 6-1 9-1z m83 304c-9 0-15-7-15-15 0-9 7-15 16-15 8 0 14 7 14 15-1 9-7 15-15 15z m45 0c-9 0-15-7-15-15 0-9 7-15 16-15 8 0 15 7 15 15 0 9-8 15-16 15z m-91 0c-8 0-14-7-14-15 0-9 7-15 16-15 8 0 14 7 14 15-1 9-8 15-16 15z"/>
<glyph glyph-name="comodidades-loja" unicode="&#75;" d="M465 409l-92 0 0 26c0 31-25 77-77 77-57 0-78-47-78-77l0-26-91 0c-6 0-10-5-10-10l0-111 19 0 0 100 82 0 0-27c0-6 5-9 10-9 5 0 10 4 10 9l0 27 116 0 0-27c0-6 4-9 9-9 5 0 10 4 10 9l0 27 82 0 0-369-77 0 0-19 87 0c5 0 9 5 9 10l0 388c0 6-5 11-9 11z m-111 0l-116 0 0 26c0 19 18 58 58 58 41 0 58-38 58-58z m-129-205l-24 0 0 16c17 3 29 18 29 37 0 16-22 56-30 68-1 2-4 3-7 3-3 0-6-1-8-4-6-12-29-51-29-68 0-17 11-32 29-37l0-16-25 0c-4 0-8-4-8-9l0-186c0-5 4-9 8-9l65 0c5 0 9 4 9 9l0 187c0 1 0 2-1 3 0 4-4 6-8 6z m-51 53c0 6 8 23 19 44 12-21 20-38 20-44 0-7-5-14-11-17l0 19c0 5-4 9-9 9-5 0-8-4-8-9l0-19c-7 3-11 9-11 17z m43-241l-49 0 0 171 49 0z m121 89l-23 0 0 17c17 3 29 17 29 36 0 17-22 56-30 68-2 3-5 5-8 5-3 0-6-2-7-5-7-12-30-50-30-68 0-17 11-31 29-36l0-17-25 0c-4 0-8-4-8-8l0-87c0-5 4-9 8-9l65 0c5 0 9 4 9 9l0 87c1 4-3 8-9 8z m-51 52c0 6 8 24 19 45 12-21 20-39 20-45 0-6-5-13-11-17l0 19c0 5-4 9-9 9-5 0-8-4-8-9l0-19c-7 4-11 11-11 17z m44-141l-49 0 0 73 49 0z m-219 144l-24 0 0 17c17 3 29 17 29 36 0 17-22 57-30 68-3 6-13 6-16 0-6-11-29-50-29-68 0-17 11-31 29-36l0-17-24 0c-4 0-8-4-8-8l0-142c0-5 4-9 8-9l65 0c5 0 9 4 9 9l0 142c1 4-4 8-9 8z m-51 53c0 5 8 23 19 44 12-21 20-39 20-44 0-7-5-14-11-18l0 19c0 5-4 9-9 9-5 0-9-4-9-9l0-19c-6 4-10 11-10 18z m44-197l-49 0 0 128 49 0z"/>
<glyph glyph-name="comodidades-pequenoalmoco" unicode="&#76;" d="M393 136c14-13 29-17 49-17 43 0 71 29 71 73 0 44-31 70-74 70-9 0-17-1-26-5l0 41c0 9-7 18-16 18l-349 0c-10 0-18-9-18-18l0-71c0-38 10-76 32-108 9-14 20-27 32-39l-79 0c-9 0-15-3-15-12 0-10 6-12 15-12l31 0c6-35 34-50 68-50l217 0c33 0 62 15 67 49l31 0c9 0 15 2 15 12 0 9-6 12-15 12l-79 0c10 7 36 42 43 57z m21 95c8 6 16 6 25 6 24 0 50-11 50-48 0-23-15-44-47-44-16 0-30 4-38 17 7 19 9 45 10 69z m-40-176c-3-19-22-26-43-26l-217 0c-20 0-37 6-44 26z m-61 24l-184 0c-49 34-75 92-77 138l0 75 337 0 0-76c-1-55-39-111-76-137z m-152 319c0-13 9-27 25-38 2-2 3-3 6-3 3 0 7 1 8 5 4 5 2 12-2 15-10 8-16 15-16 22-1 9 9 18 9 18 11 10 17 24 16 35-1 20-15 31-16 33-5 3-12 3-16-2-4-4-2-11 1-15 0 0 9-7 9-16 1-5-3-13-10-19-1-2-15-15-14-35z m107-38c1-2 3-2 6-2 3 0 7 2 9 5 4 5 2 12-3 14-11 6-23 17-23 28-1 12 11 21 11 21 15 13 23 26 21 42-1 21-19 36-20 36-5 3-11 2-14-3-4-4-3-12 2-14 0 0 11-8 12-19 0-7-5-16-14-24-1-2-20-18-19-40 1-17 12-31 32-44z"/>
<glyph glyph-name="comodidades-pets" unicode="&#77;" d="M222 365c-16 0-29-18-29-39 0-22 13-39 29-39 17 0 30 16 30 39-1 21-13 39-30 39z m0-64c-8 0-15 11-15 25 0 14 7 25 15 25 9 0 16-12 16-25 0-13-7-25-16-25z m-57 36c20 0 37 22 37 50 0 28-17 51-37 51-21 0-37-23-37-51 0-28 16-50 37-50z m0 87c13 0 23-17 23-37 0-19-11-36-23-36-12 0-23 17-23 36 0 20 10 37 23 37z m-105-98c0 21-13 39-30 39-17 0-30-17-30-39 0-22 13-39 30-39 17 0 30 16 30 39z m-30-25c-9 0-16 11-16 25 0 14 7 25 16 25 8 0 16-11 16-25 0-14-8-25-16-25z m56 37c20 0 37 22 37 50 0 28-17 50-37 50-21 0-38-22-38-50 0-28 17-50 38-50z m0 86c13 0 23-17 23-37 0-19-10-35-23-35-13 0-24 17-24 36 0 20 11 36 24 36z m109-138c-1 1-1 2-2 3-9 17-31 38-67 38l-1 0c-37 0-59-20-68-38 0-1-1-2-2-2-1-1-2-2-3-3-7-12-11-25-11-37 1-13 6-25 16-30 4-3 8-4 12-4 9 0 17 5 26 11 6 4 12 8 19 11 1 0 3 1 8 1 6 0 10-1 11-1 7-3 12-7 18-11l1-1 0-1c8-5 16-11 26-11 4 0 7 1 11 3 20 11 23 41 8 67-2 2-2 3-2 5z m-13-60c-2-1-3-1-5-1-5 0-11 4-18 9-5 3-12 8-19 11-4 2-12 2-17 2-7 0-11-1-14-2-8-3-14-8-21-11-7-5-14-9-18-9-2 0-4 1-5 2-5 4-8 10-9 19 0 9 3 19 8 30 0 0 1 0 1 1 1 1 2 3 4 5 7 15 25 31 55 31l1 0c30 0 48-17 55-31 1-2 2-4 2-5 1-1 1-1 2-1 11-21 11-42-2-50z m300-2c-17 0-30-16-30-39 0-21 13-39 30-39 17 0 30 17 30 39 0 23-13 39-30 39z m0-64c-8 0-16 11-16 25 0 14 8 25 16 25 9 0 16-11 16-25 0-14-7-25-16-25z m-58 37c21 0 38 23 38 51 0 28-17 50-38 50-20 0-37-22-37-50 0-28 17-51 37-51z m0 86c14 0 24-17 24-36 0-20-10-37-24-37-13 0-23 17-23 37 0 19 10 36 23 36z m-105-98c0 22-13 39-29 39-17 0-30-16-30-39 0-21 13-39 30-39 16 0 29 18 29 39z m-29-25c-9 0-16 11-16 25 0 14 7 25 16 25 8 0 15-11 15-25 0-14-7-25-15-25z m55 37c21 0 38 23 38 51 0 28-17 50-38 50-20 0-37-22-37-50 0-28 17-51 37-51z m0 87c13 0 24-17 24-36 0-20-11-37-24-37-13 0-23 17-23 37 0 19 11 36 23 36z m109-139c-1 1-1 2-2 3-8 18-30 38-67 39l-1 0c-35 0-57-19-67-38 0-1 0-2-1-2-1-1-2-2-3-3-8-12-11-25-11-37 1-13 6-24 15-30 4-3 9-3 13-3 9 0 16 4 26 11 5 3 12 7 18 10 1 0 4 1 9 1 5 0 10-1 11-1 6-3 12-7 17-10l1 1 0-1c9-6 17-11 26-11 4 0 8 0 12 2 19 12 23 41 8 67-2 0-3 1-4 2z m-13-58c-2-1-3-1-4-1-5 0-12 3-18 8-6 4-12 8-20 11-3 2-12 2-16 2-7 0-12-1-14-2-8-3-14-7-21-11-7-5-14-8-18-8-2 0-4 1-5 2-6 3-8 10-9 18 0 9 2 20 8 30 0 1 1 1 1 2 1 1 2 3 3 4 7 15 25 31 55 31l1 0c29 0 48-17 54-31 1-1 2-3 3-4 1-1 1-1 2-2 12-21 11-42-2-49z"/>
<glyph glyph-name="comodidades-piscina" unicode="&#78;" d="M496 176c-18-17-46-19-65-1l-4 4c0 0-1 1-1 1-1 1-3 1-3 2-1 2-2 2-2 3-1 0-1 1-3 1-1 1-2 1-3 3 0 0-2 0-2 1-26 14-58 10-81-13l-2-2c-19-18-48-18-65 1l-2 1c-26 27-68 28-94 2l-4-4c-19-18-48-18-65 1l-1 1c-27 27-69 28-95 2-4-4-5-12 0-15 5-4 11-5 15 0 18 17 47 17 65-2l1-1c14-14 31-20 49-20 16 0 33 6 46 19l4 2c18 18 47 18 65-1l1-1c26-26 68-28 95-1l3 3c15 14 37 17 54 8 1 0 3-1 4-3 0 0 1-1 1-1 1 0 1-1 3-1 1-1 1-1 2-3 0 0 1-1 1-1l2-1c22-23 55-26 81-11 5 2 11 7 16 11 4 4 4 11 0 15-4 4-12 5-16 1z m0-100c-18-17-46-19-65-1l-4 4c0 0-1 1-1 1-1 1-3 1-3 2-1 2-2 2-2 3-1 0-1 1-3 1-1 1-2 1-3 3 0 0-2 0-2 0-26 13-58 10-81-13l-2-1c-19-18-48-18-65 1l-2 1c-26 27-68 28-94 2l-4-4c-19-18-48-18-65 1l-1 1c-27 27-69 28-95 2-4-4-5-12 0-15 3-4 11-5 15 0 18 17 47 17 65-2l1-1c14-14 31-20 49-20 16 0 33 6 46 19l4 2c18 18 47 18 65-1l1-1c26-26 68-28 95-1l3 3c15 14 37 17 54 8 1 0 3-1 4-3 0 0 1-1 1-1 1 0 1-1 3-1 1-1 1-1 2-3 0 0 1-1 1-1l2-1c22-23 55-26 81-11 5 2 11 7 16 11 4 4 4 11 0 15-4 4-12 5-16 1z m-477 186c18 18 47 18 65-1l1-1c14-14 31-20 49-20 16 0 33 6 46 18l4 4c18 18 47 18 65-1l1-1c26-26 68-28 95-2l3 4c8 6 15 10 24 13 1 0 3 0 4 0 0 0 1 0 1 0 1 0 1 0 3 0 1 0 2 0 2 0 0 0 1 0 1 0 10-2 20-5 28-13l4-4c2-2 6-4 10-7 1-1 2-1 3-2 0 0 2 0 2-2 3-1 7-3 10-5 1 0 1 0 2-1 1 0 3 0 3-1 1 0 1 0 2 0 1 0 3 0 5-1 1 0 1 0 3 0 1 0 2 0 2 0 1 0 3 0 4 0 1 0 2 0 4 0 1 0 2 0 3 0 2 0 2 0 3 0 1 0 2 0 4 0 0 0 1 0 1 0 1 0 2 1 5 1 11 2 21 9 30 17 3 4 3 11 0 15-4 4-11 4-15 0-6-6-14-10-23-12-15-4-32 0-43 12l-2 1c-10 10-23 17-36 19 0 0-1 0-1 0-1 0-4 0-5 0-1 0-1 0-3 0-1 0-2 0-3 0-2 0-3 0-4 0-1 0-1 0-3 0-1 0-2 0-5 0 0 0-1 0-1 0-2 0-4-1-6-1-11-3-21-9-31-18l0 2c-7-7-15-10-23-12l0 162c0 30-24 53-53 53l-2 0c-30 0-53-23-53-53l0-8c0-6 5-11 11-11 6 0 10 5 10 11l0 8c0 17 15 32 32 32l2 0c17 0 32-15 32-32l0-84-117 0 0 84c0 30-24 53-54 53l-1 0c-30 0-54-23-54-53l0-8c0-6 5-11 11-11 6 0 11 5 11 11l0 8c0 17 15 32 33 32l1 0c16 0 31-15 31-32l0-160c-16-5-35-2-47 11l-1 1c-27 26-69 28-95 1-4-3-5-11 0-15 5-3 10-5 15-1z m150 56l117 0 0-55c-8 3-15 7-21 13l-2 1c-13 14-31 20-48 20-16 0-34-6-46-19z"/>
<glyph glyph-name="comodidades-recepcao" unicode="&#79;" d="M254 512c-141 0-254-114-254-254 0-140 114-254 254-254 141 0 254 114 254 254 0 140-113 254-254 254z m0-489c-129 0-234 106-234 234 0 129 105 234 234 234 129 0 234-104 234-234 0-130-105-234-234-234z m9 268l0 84c0 5-4 8-8 8-4 0-9-4-9-8l0-84c-12-3-21-12-24-24l-59 0c-5 0-8-4-8-8 0-4 4-8 8-8l59 0c4-14 17-25 32-25 18 0 33 15 33 33 1 15-10 28-24 32z m-9-49c-9 0-17 7-17 17 0 9 7 17 17 17 10 0 17-7 17-17 0-10-8-17-17-17z m0 184c5 0 8 4 8 8l0 8c0 5-4 8-8 8-4 0-8-3-8-8l0-8c0-4 4-8 8-8z m0-335c-5 0-8-4-8-8l0-8c0-5 4-8 8-8 4 0 8 4 8 8l0 8c1 4-3 8-8 8z m184 176l-8 0c-5 0-8-4-8-8 0-4 4-8 8-8l8 0c5 0 8 4 8 8 0 4-3 8-8 8z m-359 0l-8 0c-5 0-8-4-8-8 0-4 4-8 8-8l8 0c5 0 8 4 8 8 0 4-4 8-8 8z m299 128l-6-6c-3-3-3-10 0-13 2-2 4-2 6-2 2 0 4 1 7 2l6 6c3 4 3 10 0 13-4 3-10 3-13 0z m-254-254l-6-6c-3-3-3-10 0-13 2-2 4-2 6-2 2 0 5 1 7 2l6 7c3 3 3 9 0 12-4 3-10 3-13 0z m261 0c-4 3-10 3-13 0-3-3-3-9 0-12l6-7c2-2 4-2 7-2 2 0 4 1 6 2 3 3 3 10 0 13z m-254 254c-4 3-10 3-13 0-3-3-3-9 0-13l6-6c2-2 5-2 7-2 2 0 4 0 6 2 3 3 3 10 0 13z"/>
<glyph glyph-name="comodidades-restaurante" unicode="&#80;" d="M345 359c2-2 4-3 7-3 1 0 4 1 6 3l95 95c4 4 4 10 0 13-4 3-10 4-13 0l-94-95c-4-3-4-9-1-13z m25-25c2-2 4-3 7-3 3 0 5 1 7 3l95 95c3 4 3 10 0 13-4 4-9 4-13 0l-96-94c-3-4-3-10 0-14z m-203-69c0 0 8-9 16-18l14 12-21 24c-3 3-8 4-12 2-29-18-67-14-91 10-26 26-44 57-51 85-7 27-3 48 10 62 13 12 35 16 62 9 28-7 58-26 83-51 25-25 29-62 11-92-2-4-2-9 2-12l25-21 13 12-20 18c17 36 12 79-17 108-29 28-62 48-93 56-32 8-61 3-78-16-18-19-24-46-16-79 8-31 28-64 56-92 29-29 72-36 107-17z m274-168l-138 123-12-13 138-123c1-1 1-1 2-2 12-12 12-30 0-42-12-11-29-11-41 0-1 1-1 1-2 2l-120 137-12-14 119-134c1-1 2-2 3-3 9-9 22-14 34-14 11 0 24 5 33 14 19 18 19 49 0 67-2 1-3 1-4 2z m66 316c-4 3-10 3-13 0l-118-119c-15-14-36-18-55-9-4 2-8 1-11-2l-40-46-173-195c-1-1-1-1-1-2-12-11-30-11-42 0-6 6-9 14-9 22 0 8 3 15 9 21 0 0 1 1 2 1l159 140 81 73c3 3 4 7 2 11-9 19-5 41 10 55l118 118c4 4 4 10 0 13-4 4-10 4-12 0l-119-118c-18-19-24-45-15-70l-38-31-14-12-19-18-14-12-152-135c-1-1-2-2-3-2-8-9-13-21-13-34 0-13 5-25 13-33 9-9 22-14 34-14 12 0 24 5 33 14 1 1 2 2 3 3l130 145 49 56 30 34c24-9 51-3 70 16l118 118c3 3 3 9 0 12z"/>
<glyph glyph-name="comodidades-servicodequarto" unicode="&#81;" d="M362 153c-4 0-8-1-12-3-20-10-87-34-91-35l-36 2c9 2 16 3 21 5 14 3 19 15 18 23-1 10-10 19-19 19-11 0-97-4-104-4-1 0-2 0-2-1l-108-38c-3-1-5-4-4-8l16-103c0-2 2-4 5-5 0-1 1-1 3-1 2 0 3 0 4 1 31 19 61 37 67 37 2 0 7 0 13 0l6 0c16 0 52-1 78-1 30 0 37 1 41 2 7 1 25 9 115 70l3 3c7 4 11 14 8 22-3 8-11 15-22 15z m6-26l-4-3c-88-59-106-67-109-68-2 0-9-1-38-1-24 0-54 1-73 1l-12 0c-6 0-10 0-12 0-11 0-35-15-58-29l-6-4-13 84 100 35c19 1 92 4 102 4 1 0 2-2 2-5 0-1 0-4-5-4-21-4-70-18-70-18-4 0-7-4-6-8 0-4 4-7 8-8l86-5c1 0 2 0 3 1 12 4 75 27 94 37 1 1 3 1 5 1 4 0 6-2 6-4 1-3 1-5 0-6z m-64 342c12 0 22 10 22 22 0 12-9 21-22 21-11 0-21-9-21-22 0-11 10-21 21-21z m0 31c5 0 9-4 9-9 0-5-4-8-9-8-4 0-8 3-8 8 0 4 4 9 8 9z m-166-238l328 0c3 0 7 3 7 6 0 6 1 11 1 15 0 91-83 177-172 177-92 0-172-83-172-177 0-4 0-9 1-15 0-3 4-6 7-6z m164 184c77 0 156-82 156-163 0-2 0-4 0-6l-314 0c0 2 0 4 0 6 1 86 75 163 158 163z m176-201l-353 0c-5 0-7-4-7-8l0-36c0-5 3-8 7-8l353 0c5 0 7 4 7 8l0 36c1 4-2 8-7 8z m-8-36l-336 0 0 20 336 0z"/>
<glyph glyph-name="comodidades-wifi" unicode="&#82;" d="M257 130c-15 0-26-13-26-26 0-14 13-27 26-27 15 0 26 13 26 27 0 13-11 26-26 26z m0 104c-42 0-81-18-111-52-1-1-2-5-2-7 0-4 1-6 3-9 3-2 5-4 9-4 3 0 6 2 9 4 25 28 59 44 93 44 35 0 69-15 94-44 3-2 5-4 9-4 4 0 6 2 9 4 3 5 3 13 0 18-32 32-72 50-113 50z m0 98c-68 0-133-30-183-83-3-3-4-5-4-9 0-4 1-6 4-9 2-2 5-4 8-4 4 0 7 2 9 4 44 49 104 76 166 76 63 0 123-27 166-76 3-2 5-4 9-4 4 0 6 2 9 4 2 3 4 5 4 9 0 4-2 6-4 9-50 53-115 83-184 83z m255-19c-67 75-159 118-255 118-96 0-187-43-255-118-4-5-4-12 0-17 3-3 5-4 9-4 4 0 6 1 9 4 62 70 147 110 237 110 90 0 175-39 239-110 2-3 5-4 9-4 3 0 6 1 8 4 4 5 4 12-1 17z"/>
<glyph glyph-name="essencia-amadeirada-1" unicode="&#83;" d="M113 312c-12 4-15 16-8 34 2 20 0 38 0 58-1 31-3 63-12 93-3 4-6-2-6-5 2-12-9-144 6-204 2-37 2-71 0-107 0-2 0-2 0-3 0-53 11-109 15-158 2-17 20-17 18 0-6 78-37 194 20 251 14 14 33 51 20 71-35 51-67-3-53-30z m-9-62c-2-2-2-5-3-8 0 6 0 14-2 20 2-3 3-8 5-12z m3 9c0 2-2 3-2 5 2 0 2-2 3-2 0-1-1-3-1-3z m16 110c2-2 3 0 3 1 4 11 0 23 0 34 0 27 0 54-1 81 0 1-2 1-2 0 0-24-1-50-1-74 0-7 0-16 0-24 0-1 0-5 0-6 0-2 0-2 0-3 0-2 0-3 0-3 0-3 0-5 1-6z m-61 128c0 1-2 0-2-2 17-84 5-179 8-265 1-69 7-140 7-209 0-6 8-6 8 0-2 69-6 140-9 209-5 88 7 181-12 267z m98-127c0 28-3 53-3 80 0 15 3 30 0 45 0 3-3 2-3-1 1-15-2-30-2-45-1-26 3-51 2-79 0-4 6-4 6 0z m4-162c-1 9-3 19-7 28-2 5-8 8-9 2-5-9-6-15-8-23-4-7-4-18 3-27 0 0 0-1 2-1 1-3 4-3 6-2-2-21-6-42-8-60-3-35-6-71 0-105 2-15 17-6 14 6-6 43-2 90 3 135 1 12 3 26 3 39 1 0 1 5 1 8z m20 3c6 37 1 74 1 111-1 56 5 113 5 169 0 3-3 3-3 0-2-42-5-84-6-128-3-50 6-101-2-151-1-4 5-7 5-1z m0-21c0 3-3 1-3-2 7-60-9-120 6-179 1-6 7-1 6 3-14 59 4 119-9 178z m55 271c0 18-3 37-19 48-3 1-3-3-3-5 0-1 0-3 0-4-2-5-3-8-3-12-2-3-3-9-5-14 0-1-1-3-1-6 0-1 0-4 0-6-3-9-5-18-2-25 0-2 0-3 2-5 3-19 7-37 12-57 0-3 1-6 1-9 0-12 0-24 3-36 0-3 0-6 0-9 0-32 0-62 0-92 0-6 8-6 8 0 0 69 3 138 9 208-2 0-2 0 0 1 3 8 3 15-2 23z m-31-33c1-2 3-2 4-3 5-12 6-26 6-39-3 15-7 28-10 42z m19-30c-1-16-3-31-4-47 0 4-2 10-2 15 0 1 0 3-1 4 0 19-2 37-8 55 2 0 2 0 3 0 0 0 2 0 2-2 6-1 9 0 10 5 2 0 2 0 3 1 0-10-1-21-3-31z m-24-128c-1 0-1 0-3 0 2 0 3 0 3 0z m0-5c0 3-3 5-3 2-13-85-6-178 2-262 0-5 4-5 4 0-6 84-12 176-3 260z m100-14c1 3 3 8 4 11 8 14 8 30 9 45 5 59-9 127-13 184-2 16-20 16-18 0 4-48 18-110 13-166-4 38-6 77-13 115 0 4-5 3-5-2 0-1 0-3 0-6 0-4 5-4 5 0-2-30-2-83 10-110-1 5-6 0-4-3 0-1 0-1 0-3 0-1 0-1 0-3 1-1 3-4 4-6-1 0-1 0-3-1-1 4-3 10-6 15-1 1-3 1-3 0 0 0 0 1 0 3 0 0 0 1 0 1 0 23-3 45-6 68 0 5-4 2-4-1-2-26 3-50 6-76 1-15 0-30 1-45 0-3 0-6 0-10-4-8-9-14-15-20-1-2-3-5-6-6 2 19 2 41 2 60 0 35 6 68 1 103 0 0-1 0-1 0 3-31-2-61-3-91-2-27 0-54-4-80-10-16-19-42-9-57 5-7 11-12 16-16-2-49 1-97 1-145 0-3 3-3 3 0 2 48 0 96-3 145 5-3 8-3 12-5-1-27-4-54-3-81 0-2 3-3 3 0 2 27 3 54 5 81 18 5 28 33 19 50 14-5 17-17 9-35-1-19 0-38 0-57 0-32 2-63 12-93 2-5 6 0 5 3-2 18 15 215-21 234z m-20 32c0 2 0 3 0 3 0 3 0 6 0 11 0 0 0 1 0 1 0-3 2-7 5-13-2-2-3-2-5-2z m-53-113c0-51 0-104 3-155 0-1 2-1 2 0 3 51 0 104 0 155 0 5-5 5-5 0z m68-84c0 3-4 1-4-2 1-24-2-48-2-72 0-3 3-4 5 0 0 3 0 5 0 8 3 22 4 45 1 66z m32 414c-5-78 6-155 3-233 0-13 12-13 13 0 3 75-4 156-10 231 0 5-6 6-6 2z m-113-328c0-55-6-113 3-166 0-4 4-3 6 0 9 54 3 111 3 166 0 10-12 10-12 0z m221 143c3 16 0 33-12 43 0 0-1 2-1 2-2 3-3 4-3 6-5 20-11 39-14 65 0 3-1 4-3 6 0 3 0 6 0 9 5 13 2 28 3 42-3-2-1-3-1-6 0-3 1-5 1-8 0 0 0-1 0-1 0 0 0 0 0-2 0-1 2-3 2-4 1-2 1-2 3-2 1-3 3 0 3 2-2 10-3 22-6 33 0 1-2 1-3 0 0-2 0-3 0-5 0 0 0 2 0 2 0 1-2 1-2 1 0 2 0 2-1 3-2 3-3 2-5-1 0 0 0 0 0-2 0 0 0 2 0 2 0 7-7 9-9 1 0-4-1-7-1-12 0-3-2-7-2-10-1 0-1-3-1-5 0-1 0-4 1-6 0-7-1-15-1-24-2-1-2-4-4-6-1-3-1-6-1-10-3-3-5-8-3-12 0-3 3-12 6-21-6-32-14-62-20-92-1-6 5-18 11-14 1-7 4-16 6-24 15-47 12-87 15-135 0-2 0-4 2-4 0-40 1-81 10-114 5-17 20-6 17 8-18 73-6 179 1 253 0 3 0 6 0 9 17 4 17 18 12 33z m-25 176c0 1 0 1 0 3 0 0 0 0 0 1-2 2-2-1 0-4z m-5-238c0-5-1-9-1-14-3 11-8 20-12 31 6-5 10-5 15-2 0-4 0-9-2-15z m-39-98c0 8-9 8-9 0-2-47 0-95-2-141 0-3 3-5 5-2 7 17 4 38 3 56 0 28 3 57 3 87z m104 50c0-12 12-11 12 0 6 99 4 200-8 299 0 3-4 2-4-1-5-99 1-199 0-298z m-103 46c9-81 2-165 14-246 0-5 5-2 5 1-11 81 1 166-19 245z m-6 119c0 28-3 55-4 82-2 19 1 40-3 60 0 2-2 2-2 0 2-47 3-93 5-140 0-6 4-6 4-2z m-24-153c0-51-1-103-1-152 0-3 3-3 3 0 1 51 1 102-2 152 2 1 0 1 0 0z m103 140c0-5 4-5 4 0 0 42 12 99-4 140 0 1-2 0-2 0 3-48 0-93 2-140z m37-295c2 18 3 36 3 54 0 3-3 3-3 0 0-12-1-24-3-38 0 3 0 6 0 8 0 1 0 1-1 1l0 6c0 3-3 3-3 0 0-3-2-7-2-10-1 0-3 0-3-3 0-5 0-9 0-14-1 2-3 2-3-1 0-2 0-3 0-3-1 0-1-2-3-3 0 3 0 7 0 10 0 3 2 5 2 6 4 30 10 61 10 91 0 1-1 1-1 0-2-21-5-43-8-62 2 26 2 53 2 78 0 6-6 5-6 0 0-37-8-86-3-123 0 0 0-2 0-3 0 0 0 0-2 0-1 3-4 4-6 0-1-9-3-20 2-27 0 0 1-2 1-2 0-1 0-3 2-4-2 1-5 1-6 4-2 2-5-1-5-3-6 84 8 170 8 255 0 3-3 3-3 0-3-92-18-184-8-277 0-4 5-4 5 1 0 6-2 12-2 18 3-23 29-16 42-4 9 9 5 36-6 45z m-7 4c0 0-2 0-2 0 0 3 0 6 0 8 0 0 2 0 2 1l0-3c0-1 0-1 1-1 0-2 0-3 0-3-1 0-1-2-1-2z m4-1c0 0-1 0 0 0 0 6 0 10 2 16-2-6-2-10-2-16z m-52 358c1 27 3 56 0 83 0 1-2 1-2 0 2-27 0-54 0-81-1-3 2-5 2-2z m-378 68c-2 6-2 7-3 10 0 0 0 0 0 2 0 1-2 1-2 1 0 0-1 2-1 2-3 4-6-2-5-5 0-1 2-3 2-4 0 0 0-2 0-2 0 0 0 0 0 2 0 4-2 9-3 12-2 5-5 0-5-3 0 0 0 0 0-2 0 0-1-1-1-3 0 0 0 0 0-1 0 0 0 0-2-2 0 2 0 3-1 5 0 1-2 1-2 0 0-5 2-11 2-15 0-2 0-3 0-5 0 2-2 2-2 3-1 8-1 14-3 20-1 4-6 3-6 0 2-9 3-18 5-26 1-9 1-16 1-25 2-33-3-65-3-98 0-6 8-6 8 0 0 33 3 65 1 98 2-3 2-8 3-12 0-2 0-2 0-3 2-44-1-86 0-130 2-19-6-65 9-81 0 0 2-2 2-2 0-19-2-39-2-60-1 0-3-1-3-4 0-6 0-11 0-17-1-13-4-27-10-41-3-6-5-12-5-18 0-9 2-16 3-25-1-9-1-36 12-32 0-1 2-1 2-3 0-1 1-1 1-1 2-3 3-6 6-8 5-4 6 3 6 6 11 124 6 256 0 380 0 1-1 1-1 0-3-53-6-109-8-165-7 31-4 68-6 97-1 27 0 54 0 83 0 0 0-2 0-2 2-4 5 0 5 3-2 12-3 21-5 29 0 12 0 24 0 36 0 0 2-2 2-3 0 0 0-2 0-2 1-1 1-1 3-1 0-6 1-14 3-20 3-22 7-45 10-69 0-4 5-4 5 0-2 32-9 63-14 95 2 0 3 4 2 6z m-17-29c0 0 0 2 0 0 0 2 0 2 0 0z m-3-415c-1 4-3 7-1 9 1-2 1-5 1-9 2 1 2 1 0 0z m8 34c0 2 0 2 0 0 0 2 1 5 3 6 0-3 0-6 0-9 0 2-2 3-3 3z"/>
<glyph glyph-name="essencia-cores-amadeirada" unicode="&#84;" d="M316 452c0-32-27-59-60-59-33 0-60 27-60 59 0 33 27 60 60 60 33 0 60-27 60-60z m-60-142c33 0 60-27 60-60 0-33-27-59-60-59-33 0-60 26-60 59 0 33 28 60 60 60z m0-191c33 0 60-26 60-59 0-34-27-60-60-60-33 0-60 26-60 60 0 33 28 59 60 59z"/>
<glyph glyph-name="essencia-cores-floral" unicode="&#85;" d="M316 452c0-32-27-59-60-59-33 0-60 27-60 59 0 33 27 60 60 60 33 0 60-27 60-60z m-60-142c33 0 60-27 60-60 0-33-27-59-60-59-33 0-60 26-60 59 0 33 28 60 60 60z m0-191c33 0 60-26 60-59 0-34-27-60-60-60-33 0-60 26-60 60 0 33 28 59 60 59z"/>
<glyph glyph-name="essencia-cores-frutada" unicode="&#86;" d="M316 452c0-32-27-59-60-59-33 0-60 27-60 59 0 33 27 60 60 60 33 0 60-27 60-60z m-60-142c33 0 60-27 60-60 0-33-27-59-60-59-33 0-60 26-60 59 0 33 28 60 60 60z m0-191c33 0 60-26 60-59 0-34-27-60-60-60-33 0-60 26-60 60 0 33 28 59 60 59z"/>
<glyph glyph-name="essencia-cores-natural" unicode="&#87;" d="M316 452c0-32-27-59-60-59-33 0-60 27-60 59 0 33 27 60 60 60 33 0 60-27 60-60z m-60-142c33 0 60-27 60-60 0-33-27-59-60-59-33 0-60 26-60 59 0 33 28 60 60 60z m0-191c33 0 60-26 60-59 0-34-27-60-60-60-33 0-60 26-60 60 0 33 28 59 60 59z"/>
<glyph glyph-name="essencia-cores-oriental" unicode="&#88;" d="M316 452c0-32-27-59-60-59-33 0-60 27-60 59 0 33 27 60 60 60 33 0 60-27 60-60z m-60-142c33 0 60-27 60-60 0-33-27-59-60-59-33 0-60 26-60 59 0 33 28 60 60 60z m0-191c33 0 60-26 60-59 0-34-27-60-60-60-33 0-60 26-60 60 0 33 28 59 60 59z"/>
<glyph glyph-name="essencia-floral-1" unicode="&#89;" d="M456 185c7 16 16 31 19 47 9 38-2 75-21 110-7 12-9 13-20 4-15-11-30-23-44-34 0 31-10 61-28 88-2 3-6 7-8 12-1 0-2 0-5 0-1-5-2-9-4-15-4-15-12-29-27-37-5-4-11-9-17-14-8 18-19 31-34 44-3 2-5 4-9 6-16 10-21 9-30-9-7-13-12-27-20-43-2 3-4 5-7 8-13 12-25 25-40 36-10 8-16 6-21-6-5-12-9-26-14-39-9 2-12-4-14-11-3-20-5-38-7-57-14 2-29 7-45 8-13 1-25-1-39-3-7 0-8-4-8-10 0-20 8-36 20-52 9-12 20-22 32-33-26-12-48-30-64-55 0-1 0-2 0-4 41-41 140-24 140-24l9 4c0 0 23 6 34 10 12 3 24 8 36 11 4 1 7 0 10 0 14-1 26-2 39-3 3 0 6 1 8 2 8 9 17 6 27 3 14-5 29-9 43-12 7-2 21-8 21-8l16-4c0 0 58-10 88-3 18 5 32 14 44 28 0 1 0 2 0 5-18 21-36 39-60 50z m-211 210c23-11 40-25 49-48 1-4-1-10-2-14-3-5-5-9-7-12-13 6-27 13-40 20 0 16 0 34 0 54z m-99-18c2 8 8 8 13 4 14-11 27-23 41-35-7-5-6-8-1-11 24-17 35-48 29-76-23 20-47 40-37 78-1 0-2 1-4 1-9-6-19-13-29-20-7 5-13 10-21 16-2 1-3 4-3 7 4 12 7 24 12 36z m40-108c-10 5-21 8-31 13-1 1-3 3-3 5 0 16 13 32 26 39 3-18 6-37 8-57z m-38-91c-18 7-37 13-55 21-17 8-30 21-40 38-7 13-17 25-27 38 19 3 37 2 56-1 0 0 1 0 1 0 17-2 27-8 31-28 4-26 18-46 36-65-1-2-2-2-2-3z m-32 131c11-21 30-31 50-39 13-5 27-11 39-17 19-10 28-28 29-49 0-8 1-17 2-25 3-20 13-35 32-45-74-19-173 96-152 175z m151-129c-24 21-34 48-32 78 1 29-3 56-25 78 18 3 59-10 69-22 1-1 3-5 1-6-6-22-3-44 0-66 3-23-2-42-13-62z m5-3c15 24 16 51 11 80-7 41 8 77 43 99 15 10 22 25 28 42 14-20 24-41 28-65 6-54-14-97-51-134-17-15-32-32-47-48-4 8-8 17-12 26z m157-6c-21-14-43-23-67-25-25-2-48-2-75-5 5 6 8 10 11 15 17 21 36 40 59 53 13 7 26 12 39 17 43 11 64 34 65 79 0 1 0 2 0 3 20-45 15-103-32-137z"/>
<glyph glyph-name="essencia-frutada-1" unicode="&#90;" d="M172 314c0-3 6-5 11-5 6 0 11 2 11 5 0 3-5 5-11 5-5 0-11-2-11-5z m56-49c-6 0-11-2-11-5 0-3 5-5 11-5 5 0 10 2 10 5-1 4-5 5-10 5z m-84 0c0-2 6-5 11-5 5 0 11 3 11 5 0 3-6 6-11 6-5 0-11-2-11-6z m174-36c0 3-5 5-11 5-5 0-11-2-11-5 0-3 6-5 11-5 6 0 11 2 11 5z m17-54c0-3 6-5 11-5 6 0 11 2 11 5 0 3-5 6-11 6-6 1-11-2-11-6z m-67 7c0-3 6-5 11-5 5 0 11 2 11 5 0 3-6 5-11 5-5 0-11-2-11-5z m121-4c0-3 6-6 11-6 6 0 11 3 11 6 0 3-5 5-11 5-5 0-11-2-11-5z m-5 56c-5 0-11-2-11-5 0-3 6-5 11-5 5 0 11 2 11 5 0 3-6 5-11 5z m-22-105c0-2 6-5 11-5 6 0 11 3 11 5 0 3-5 6-11 6-7 1-11-2-11-6z m-134 95c-6 0-11-3-11-6 0-2 5-5 11-5 5 0 10 3 10 5 0 3-5 6-10 6z m235-11c0 3-5 5-10 5-6 0-11-2-11-5 0-3 5-6 11-6 6-1 10 2 10 6z m-30 52c0 3-6 6-11 6-6 0-11-3-11-6 0-2 5-5 11-5 6 0 11 3 11 5z m-76 34c-5 0-11-3-11-5 0-3 6-6 11-6 5 0 11 3 11 6 0 2-6 5-11 5z m-39-180c5 0 11 2 11 5 0 3-6 5-11 5-5 0-11-2-11-5 0-3 6-5 11-5z m186 219c-4 7-5 15-8 23-6 14-12 27-23 35-14 11-27 20-39 32-16 18-35 25-58 23-3 0-5 2-8 3-8 5-18 5-26 4-5-1-12-4-19-5-1 4-1 8-2 12-2 9-3 19-4 28-3 15-37 22-49 16-19-8-16-20-15-41-6 4-13 8-20 8-35 2-16-22-78-38-1 0 5-5 13-12-22-11-40-30-51-54-4-7-7-15-11-22-21-40-21-81-16-120 0-1 0-2 2-4-27 7-56 14-81 23-3 2-7 4-10 2-1-52-1-104 30-162 47-92 152-119 245-53 6 4 15 11 15 11l42 7-10 12c0 0-196 0-273 104 117-91 268-93 268-93 0 0-5 8-9 16-40 62-85 101-142 114-20 6-42 11-63 17 2-2 5-2 8-3-8 28-7 57-2 85 3 17 13 34 19 50 8 20 22 36 39 48 4 3 10 6 15 8 15-9 33-19 46-21 3-8 7-19-1-49 0-1 47 19 58 41 1-6 2-10 6-15 18-22 21 3 62-24 2-2-1 21-6 41 17-2 13 15 58 18 1 0-6 8-14 17 7-1 14-4 19-10 13-13 28-25 42-35 8-7 13-15 17-25 2-4 3-9 6-13 12-23 9-47 8-70-3-34-15-65-30-95 0-1-1-2-3-2-18-20-36-43-59-57-19-11-61-27-61-27l19-29c0 0 11 2 25 9 10 5 21 11 32 18 9 5 17 10 26 18 12 11 22 25 35 37 9 11 16 21 21 35 18 40 24 82 24 126-2 13-4 26-9 38z m-220 90c0 0-5 10-15 21-5 19 2 31 22 43 3 1 5-31 11-58-7-3-16-7-18-6z"/>
<glyph glyph-name="essencia-natural-1" unicode="&#48;" d="M468 26c-9 3-42 10-39 22 8 39 48 131-51 268-74 104-182 70-265 187-3 4-8 11-14 9-12-24-22-50-33-75-19-53-33-109-27-179 12-163 154-275 340-243 10 2 22 6 31 5 10 0 21-9 33-12 10-3 22-8 34-8-4 8-6 17-9 26z m-54 15c0 0-35 30-50 40-52 9-116-6-155-19 35 19 74 34 130 30 4 3 9 7 6 10-6 11-35 29-44 40-43 12-92 6-128-5 32 17 69 24 121 20 3-3-29 24-41 37-24 29-86 14-122 8 27 12 68 18 107 10-6 8-14 15-23 21l-7 6c-33 23-78 35-131 28 21 9 83 13 111 9-16 48-40 105-51 116 3 0 27-34 27-34 17-18 26-43 30-49-1 28 2 63 12 83-12-52-4-98 14-134l4-8c6-9 12-17 18-24-3 39 6 80 22 105-11-36-22-92-6-126 7-18 39-44 36-41 0 51 12 87 31 118-15-35-24-91-16-136 9-9 22-21 33-29 3-1 7-10 10-6 2 58 20 94 44 127-18-36-33-83-30-139 7-6 48-57 48-57z"/>
<glyph glyph-name="essencia-oriental-1" unicode="&#49;" d="M143 259c7 25-31 74-62 64 10-25 25-47 62-64z m-84 5c32-20 58-24 83-17-32 20-61 34-83 17z m96 248c6-32 27-79 56-68-10 30-25 57-56 68z m63-34c5-51 8-103 0-154l34 0c-7 54-5 100 0 154z m148-5c-15-25-54-61-39-98 12 29 51 62 39 98z m57-104c-13 12-51-1-63 12 42 9 67 35 92 63-59-11-96-42-126-80 30-8 74-8 97 5z m-149 46c7-41 10-91 0-131l40 0c-11 34-8 95 0 131z m-56-97c4-54 9-103 0-154l34 0c-9 53-3 100 0 154z m56-40c4-44 11-94 0-136l40 0c-11 38-7 98 0 136z m-56-126c5-51 8-102 0-153l34 0c-7 54-5 99 0 153z m56-17c4-44 11-94 0-136l40 0c-11 36-7 98 0 136z m-134 86c14-23 3-71 6-103l29 0c-4 41-7 74 5 109-11-4-37 7-40-6z m29-108c-8-18-27 12-29-12 14-22 3-71 6-102l29 0c-10 43 7 76-6 114z m-107 108c13-23 2-71 5-103l29 0c-4 41-7 74 5 109-12-4-37 7-39-6z m29-108c-8-18-28 12-29-12 13-22 2-71 5-102l29 0c-9 43 6 76-5 114z m267 108c14-23 3-71 6-103l29 0c-4 41-7 74 5 109-11-4-37 7-40-6z m29-108c-8-18-27 12-29-12 14-22 3-71 6-102l29 0c-10 43 7 76-6 114z m62 164c-21-5-38-17-42-43 28-4 64 22 42 43z m-67 16c-8-23-3-41 13-58 9 22 13 43-13 58z"/>
<glyph glyph-name="logotipo-simbolo-grande-1" unicode="&#50;" d="M259 391c-27 0-43-8-70-16l-189-114 189-113c16-8 43-16 70-16 0 0 2 0 2 0 0 0 3 0 3 0 27 0 51 8 70 16l189 113-189 114c-29 8-46 16-73 16 0 0 0 0-2 0"/>
<glyph glyph-name="seta-360" unicode="&#51;" d="M0 384l21 0 233-229 231 229 21 0-252-250z"/>
<glyph glyph-name="apartamentos" unicode="&#52;" d="M513 278l-244 218c0 0-1 2-1 2-5 5-15 5-20 0l-243-218c-6-6-6-15-1-21 3-3 7-6 10-6 4 0 7 2 10 4l43 40 0-255c0-20 16-37 37-37 0 0 0 0 1 0 0 0 0 0 1 0l75 0c19 0 34 16 34 34l0 129c0 3 3 5 6 5l77 0c3 0 5-2 5-5l0-129c0-18 16-34 34-34l78 0c20 0 37 20 37 46l0 244 43-39c3-3 6-4 9-4 4 0 8 1 11 5 5 7 5 16-2 21z m-92-71l0-154c0-11-5-18-7-18l-78 0c-3 0-5 3-5 6l0 128c0 19-16 34-34 34l-78 0c-18 0-34-15-34-34l0-128c0-3-3-6-5-6l-74 0c0 0 0 0-1 0-1 0 0 0-1 0-4 0-8 4-8 8l0 280 161 144 164-145z"/>
<glyph glyph-name="bt-detalhes" unicode="&#53;" d="M512 268l-244 0 0 244-24 0 0-244-244 0 0-24 244 0 0-244 24 0 0 244 244 0z"/>
<glyph glyph-name="bt-reservar-1" unicode="&#54;" d="M21 96l468 0c10 0 14 4 14 13-2 156-102 275-236 281 0 0 0 3 0 3l-2 87 42 0c7 0 15 4 15 11 0 6-8 10-15 10l-106 0c-7 0-11-2-11-8 0-7 6-13 13-13l42 0 0-66c0 0 0-24 0-24-134-6-236-123-236-281 0-7 6-13 12-13z m235 273c124 0 218-107 224-252l-448 2c4 143 102 250 224 250z m-68-87c-2 0-45-13-71-77-2-7 0-13 7-15 2 0 2 0 4 0 4 0 9 2 11 6 21 54 55 64 55 64 7 2 9 9 9 13-2 6-9 11-15 9z m313-250l-490 0c-7 0-9-4-9-11 0-6 2-10 9-10l490 0c7 0 9 4 9 10 0 7-2 11-9 11z"/>
<glyph glyph-name="duplo" unicode="&#55;" d="M455 125l-282 0c2 6 3 12 3 18 0 21-27 35-44 35l-53 0c-6 0-12-1-17-5l0 66c0 5-4 9-9 9-5 0-9-3-9-9l0-227c0-4 4-8 9-8 5 0 9 3 9 8l0 44 384 0 0-36c0-4 3-9 9-9 4 0 8 4 8 9l0 97c0 4-4 8-8 8z m-376 35l53 0c10 0 26-9 26-18 0-18-5-18-9-18l-70 0c-9 0-17 8-17 18 0 10 8 18 17 18z m367-88l-384 0 0 36 384 0z m9 318l-282 0c2 5 3 12 3 18 0 21-27 35-44 35l-53 0c-6 0-12-2-17-5l0 66c0 4-4 9-9 9-5 0-9-4-9-9l0-227c0-4 4-9 9-9 5 0 9 4 9 9l0 43 384 0 0-35c0-4 3-9 9-9 4 0 8 4 8 9l0 96c0 5-4 9-8 9z m-376 35l53 0c10 0 26-9 26-18 0-18-5-18-9-18l-70 0c-9 0-17 8-17 18 0 10 8 18 17 18z m367-88l-384 0 0 36 384 0z"/>
<glyph glyph-name="essencia-amadeirada-2" unicode="&#56;" d="M116 312c-12 5-16 16-9 35 1 18 0 38 0 57-1 31-2 64-13 93-2 5-6 0-4-4 1-11-10-145 5-204 2-36 3-71 0-107 0-2 0-3 2-3 0-52 10-108 15-158 1-16 18-16 17 0-7 76-37 192 20 249 14 14 34 51 20 71-35 51-67-2-53-29z m-10-63c-1-2-2-5-2-7 0 7 0 13-2 20 2-4 3-8 4-13 0 1 0 1 0 0z m3 9c0 1-1 3-1 5 1-1 3-2 3-2 0-2-2-3-2-3z m18 111c1-1 2 0 3 1 3 9 0 23 0 34 0 27 0 54-1 81 0 3-2 3-2 0-1-24-2-50-2-74 0-8 0-17 0-25 0-2 0-4 0-7 0-1 0-1 0-2-2 0-2-2-2-3 2-2 2-4 4-5z m-63 128c0 2-2 1-2-1 17-85 4-181 7-267 2-70 7-139 8-209 0-7 7-6 7 0-1 70-6 139-10 209-2 89 10 182-10 268z m99-127c0 27-4 54-2 79 0 15 2 30 0 46 0 3-4 2-4-2 1-15-1-30-2-45-1-27 2-54 1-79 1-4 7-4 7 1z m3-163c0 1 0 1 0 0-1 9-3 20-7 28-2 4-7 7-9 1-5-8-6-15-7-23-5-7-5-18 4-28 0 0 0 0 1-1 0-1 1-1 1-2 2-4 5-4 6-2-1-21-7-42-8-60-3-35-6-70 0-106 2-15 16-6 14 6-7 44-2 91 3 136 1 13 4 26 4 38 0 6 0 10-2 13z m21 2c6 38 3 75 2 112-2 57 4 113 4 170 0 4-3 2-3 0-1-43-5-85-6-128-2-50 6-101-2-151-2-5 4-8 5-3z m0-20c0 2-2 1-2-2 7-59-8-120 6-179 1-6 7-2 6 2-15 60 3 120-10 179z m56 272c0 18-3 38-20 48-2 1-3-3-3-5 0-1 0-2 0-4 0 0 0 0-1-1-1-3-3-8-4-11-1-4-3-9-4-14 0-2-2-4-2-6 0-3 0-4 0-6-3-9-4-19-1-27 0-1 0-3 1-4 3-20 9-39 12-57 0-4 1-6 1-10 0-13 1-24 4-36 0-3 0-6 0-9-1-32 0-63-1-93 0-7 7-6 7 0 0 68 3 139 9 208 1 1 1 2 2 4 5 7 4 15 0 23z m-32-33c1-1 2-2 3-2 5-13 6-26 7-40-3 14-7 28-10 42z m19-31c-2-15-3-30-3-47 0 5-1 10-1 15 0 2-1 4-1 5 0 19-2 37-9 55 2 0 2 0 3 0 1 0 1-1 2-1 6-2 9 0 11 4 1 0 2 0 2 1-1-11-2-22-4-32z m-24-128c1 0 1 1 0 0-1 1-1 1-2 1 0 0 0-1 0-1 1 0 2 0 2 0z m1-5c0 2-2 5-3 1-13-85-6-178 1-263 0-4 4-4 4 0-5 86-12 177-2 262z m99-13c2 4 4 7 5 11 7 14 7 30 8 45 4 60-9 126-14 185-1 17-19 17-18 0 5-47 18-110 13-165-4 38-7 77-13 114-1 5-4 2-4-1 0-2 0-4 0-6 0-5 4-3 4 0-1-30-1-84 11-111-1 5-6 0-5-3 0-1 0-2 0-2 0-1-1-3 0-3 1-2 3-3 5-5-1 0-2 0-2-2-2 5-4 11-6 14-1 1-3 1-4 0 0 1 0 1 0 3 0 1 0 1 0 2-1 22-2 45-6 67 0 4-4 3-4-1-1-25 3-50 6-75 1-15 0-31 1-46 0-3 0-7 0-10-5-7-10-14-15-20-3-2-4-3-6-7 1 20 1 41 1 61 0 34 7 67 1 102 0 1-1 0-1 0 2-30-1-59-2-90-2-26 0-53-4-80-10-17-18-42-9-57 5-7 10-13 15-16-1-49 1-97 1-146 0-3 4-3 4 0 2 48 0 97-3 145 5-3 8-4 12-4-2-27-5-53-4-81 0-3 3-4 4 0 2 26 3 54 5 82 17 4 28 33 18 50 13-4 17-16 10-35-2-18 0-38 0-57 1-31 2-64 12-93 3-4 6 0 5 4-2 14 15 212-21 231z m-20 32c0 1 0 2 0 2 0 4 0 7 0 11 0 0 0 1 0 1 1-4 3-8 5-14-1-1-2 0-5 0z m-52-114c0-51 0-104 2-155 0-1 1-1 3 0 2 51 0 104 0 155 0 6-5 4-5 0z m67-84c0 3-4 2-4-1 2-25-1-48-3-72 0-4 4-4 4-2 0 3 0 5 1 7 4 24 6 46 2 68z m32 414c-5-78 6-156 3-234 0-11 13-11 13 0 2 76-5 156-10 233 0 5-5 7-6 1z m-113-329c0-55-6-113 3-167 2-3 5-3 6 0 10 54 4 112 4 167-1 12-13 12-13 0z m222 144c4 16 0 34-13 44-1 0-1 2-2 2-1 2-2 4-3 5-5 19-11 40-14 66 0 3-3 4-4 5 0 4 0 6-1 10 5 14 2 28 2 43 1-3 1-5 3-7 0-3 1-5 2-7 0-1 0-1 0-3 0 0 0 0 0-1 0 0 0 0 0-1 0 0 0 0 0-1 1-1 1-4 2-5 3 1 4 1 5 1 1-3 3 0 3 3-1 11-2 22-5 32 0 2-3 2-3 0 0-1 0-3-1-4 0 1 0 1 0 2 0 1-1 2-1 2 0 2-1 3-1 4-1 2-4 1-5-1 0 0 0-1 0-1 0 0 0 1 0 1 0 7-8 9-9 1-1-4-1-8-1-12 0-3-2-7-2-10-1-1-2-3-2-5 0-2 1-5 1-6-1-8-1-15-1-23-2-3-3-6-3-8-2-2-2-7-3-11-2-2-3-7-3-11 1-4 3-12 6-22-6-32-14-62-20-92-1-6 5-18 10-14 2-8 4-17 7-25 15-46 12-87 15-135 0-1 0-2 2-3-2-41 2-82 10-114 5-16 20-6 16 7-18 73-7 178 3 252 0 4 0 6 1 10 13 3 14 17 9 32z m-27 177c0 1 0 1 0 2 0 0 0 2 0 2 0 2 0 0 0-4z m-3-238c0-5-1-10-1-13-4 10-8 19-12 30 6-5 11-5 15-2-1-5-1-11-2-15z m-40-99c0 8-8 8-9 0-2-48 0-95-1-142 0-3 2-5 5-2 7 18 3 38 3 56 0 29 4 59 2 88z m104 50c0-12 12-11 12 0 5 99 4 201-7 300 0 3-4 2-5-1-5-99 2-199 0-299z m-102 46c8-82 1-165 12-247 1-4 5-1 5 3-10 80 2 165-17 244 0 1 0 0 0 0z m-6 120c0 27-3 54-5 81-1 20 2 41-3 60 0 1-2 1-2 0 3-47 4-94 4-141 1-5 6-5 6 0z m-25-154c0-51-2-102-1-152 0-3 4-3 4 0 1 51 1 102-2 152 0 3-1 3-1 0z m103 140c0-5 4-5 4 0 0 43 12 99-4 140 0 1-1 0-1 0 3-48 0-93 1-140z m37-294c2 17 2 36 2 53 0 4-3 4-3 0 0-13-3-24-4-37 0 2 0 6 0 8 0 1 0 1-1 2 0 3 0 4 0 6 0 3-3 4-3 1-2-3-2-7-3-10-1 1-2 0-2-2 0-5 0-9 0-13-1 1-4 1-4-3 0-1 0-2 0-3 0 0 0 0-1-1-1-1-2-1-3-2 0 3 0 6 0 10 0 2 1 5 1 7 5 30 10 60 10 91 0 2-2 2-2 0-1-21-5-42-8-63 1 25 2 52 2 78 0 6-6 5-6 0 0-39-7-86-3-125 0-1 0-1 0-2 0 0 0 0-1 0-1 4-5 4-6 0-1-9-3-20 2-28 0-1 1-1 3-2 0-1 0-3 1-4-3 1-5 3-6 5-2 2-3-1-5-4-5 85 8 170 7 255 0 3-2 3-2 0-3-93-19-185-8-277 0-3 5-2 5 1-2 6-2 12-2 18 3-22 29-16 43-5 12 7 10 35-3 46z m-7 3c-1 0-1 0-2 0 0 2 0 6 0 8 0 0 1 1 1 1 0-1 0-1 0-2 0-1 1-2 1-2 0-1 0-3 0-4 0 0 0-1 0-1z m5-1c0 0-2 0 0 0 0 6 0 12 1 16 0-6-1-10-1-16z m-53 358c3 28 4 56-1 83 0 1-2 1-1 0 1-28 0-55-1-83 0-1 3-2 3 0z m-378 69c-2 7-2 7-5 11 0 0 0 0 0 1 0 1-1 2-1 1 0 1-1 1-1 2-2 4-6-2-5-4 0-2 2-3 2-4 0 0 0-1 0-1 0 0 0 1-2 1 0 2-1 8-2 11-1 4-5 0-5-4 0 0 0-1 0-1 0 0-1-1-1-2 0 0 0-2 0-2-1 0-1 0-1 0 0 2-1 4-1 5 0 1-2 1-2 0 0-5 1-10 2-15 0-1 0-2 0-4 0 2-1 3-1 3-1 6-3 11-4 17-1 5-6 4-6-1 2-9 3-17 5-27 1-8 1-16 1-24 1-33-3-64-3-97 0-7 7-6 7 0 0 33 3 65 2 98 1-4 2-8 4-13 0-1 0-1 1-2 1-43-1-86 0-129 1-20-6-64 8-82 0-1 1-1 1-1-1-20-1-39-1-59-1-1-2-3-2-5 0-6 0-10 0-16-2-14-4-27-11-41-2-6-5-12-5-17 0-10 2-18 3-26-1-9-1-36 13-31 1-2 1-3 1-4 0-1 1-1 1-1 2-2 3-6 6-8 3-6 6 3 4 6 12 125 6 257 0 381 0 1-1 1-1 0-2-53-6-108-8-164-8 30-3 68-6 97-1 28 0 54 0 82 0 0 0-1 0-1 1-3 5 0 4 3 1 9-1 17-3 24 0 13 0 24 0 37 0 0 2-1 3-2 0 0 0-1 1-1 1-3 2-3 3-1 2-7 2-13 3-20 3-23 8-47 10-71 0-5 5-5 5 0-4 31-11 63-15 94 2 1 2 5 2 7z m-17-28z m-3-416c-2 4-2 8-2 9 1-2 2-6 3-8-1-1-1-1-1-1z m7 34c0 3 1 5 3 6 0-3 0-7 0-9 0 1-2 2-3 3z"/>
<glyph glyph-name="essencia-floral-2" unicode="&#57;" d="M452 186c7 16 16 31 19 46 8 40-3 76-21 110-7 12-9 12-20 5-15-11-30-23-44-35 0 31-10 61-28 87-2 4-5 8-7 12-2 0-3 0-4 0-2-5-3-9-5-14-4-16-12-29-26-38-6-3-12-8-18-13-8 17-18 31-34 43-2 2-5 4-9 5-17 11-22 10-30-8-7-13-13-28-19-44-3 3-5 5-7 8-14 12-26 25-40 36-10 8-17 5-22-7-5-12-9-25-14-38-9 2-12-3-13-11-3-18-5-35-8-54-13 3-28 6-44 8-13 1-26-2-39-3-6 0-7-4-7-10 0-19 7-37 19-51 9-12 20-22 31-33-25-12-47-29-63-54 0-1 0-2 0-4 41-40 139-23 139-23l8 3c0 0 22 7 34 10 11 4 24 8 36 11 3 1 6 1 10 0 12-1 26-2 38-3 3 0 6 1 8 2 8 9 16 7 26 3 13-6 29-9 43-13 6-1 21-7 21-7l16-5c0 0 58-10 86-2 18 5 33 13 44 28 0 1 0 2 0 4-14 21-33 38-56 49z m-209 208c22-10 40-25 48-47 2-5-1-10-2-15-2-4-5-8-7-12-13 7-26 13-39 20 0 18 0 35 0 54z m-99-17c3 7 8 8 13 3 13-11 26-22 40-33-8-5-6-8-1-11 22-16 34-47 28-76-23 20-46 40-36 77-2 0-3 1-4 1-9-6-19-12-29-20-6 4-13 9-21 15-1 1-2 4-2 7 4 13 8 25 12 37z m41-107c-10 4-20 8-31 12-2 1-3 3-3 6 1 15 12 32 26 39 3-19 5-37 8-57z m-39-90c-18 6-36 12-54 20-17 7-30 21-39 38-8 13-18 24-28 37 19 4 37 3 56-1 0 0 0 0 0 0 17-1 27-8 31-26 4-26 19-46 36-65 0-2-1-3-2-3z m-31 130c11-21 29-31 50-39 13-5 26-11 39-18 18-10 27-27 29-48 0-9 0-17 2-25 3-19 13-35 32-45-76-17-173 96-152 175z m149-128c-25 21-33 47-31 77 1 30-3 56-25 78 18 3 59-10 69-23 1-2 2-4 2-6-7-22-4-44-1-66 2-21-2-41-14-60z m5-3c16 24 17 51 12 80-7 41 7 75 42 98 15 10 22 24 28 42 15-21 25-42 28-66 6-53-13-96-51-132-16-16-31-32-46-47-4 7-8 16-13 25z m156-5c-20-15-42-23-67-25-23-2-47-3-73-5 4 6 7 10 10 15 17 21 36 40 59 53 12 7 25 13 39 16 42 11 63 35 64 78 0 1 0 2 0 4 20-47 15-104-32-136z"/>
<glyph glyph-name="essencia-frutada-2" unicode="&#33;" d="M171 318c0-3 6-6 11-6 6 0 10 3 10 6 0 3-5 5-10 5-6 0-11-2-11-5z m55-47c-7 0-11-2-11-6 0-3 5-5 11-5 5 0 10 2 10 5 0 2-4 6-10 6z m-83 0c0-4 5-6 11-6 6 0 10 2 10 6 0 3-5 5-10 5-6 0-11-2-11-5z m174-38c0 3-6 5-11 5-5 0-10-2-10-5 0-3 5-5 10-5 5 0 11 2 11 5z m16-52c0-3 6-5 11-5 6 0 10 2 10 5 0 3-5 5-10 5-5 0-11-2-11-5z m-66 5c0-3 6-5 11-5 5 0 10 2 10 5 0 3-5 5-10 5-5 0-11-2-11-5z m121-4c0-3 5-5 10-5 6 0 11 2 11 5 0 3-6 5-11 5-5 1-10-2-10-5z m-7 57c-6 0-10-2-10-5 0-3 5-5 10-5 7 0 11 2 11 5 0 2-4 5-11 5z m-21-104c0-3 6-5 11-5 5 0 10 2 10 5 0 3-5 5-10 5-5 0-11-2-11-5z m-134 93c-7 0-11-2-11-5 0-4 5-6 11-6 5 0 10 2 10 6 0 3-4 5-10 5z m236-12c0 3-5 6-11 6-5 0-10-3-10-6 0-3 5-5 10-5 6 0 11 2 11 5z m-32 55c0 3-5 5-10 5-6 0-10-2-10-5 0-4 5-6 10-6 5-1 10 2 10 6z m-76 32c-6 0-10-2-10-5 0-3 5-5 10-5 6 0 11 2 11 5 1 3-5 5-11 5z m-37-180c6 0 10 2 10 6 0 3-5 5-10 5-7 0-11-2-11-5-1-3 4-6 11-6z m184 219c-4 7-7 14-9 23-5 13-11 26-23 35-12 11-27 20-39 32-16 16-34 24-57 21-2 0-5 2-7 3-9 6-17 5-26 4-7-1-12-3-18-5-1 4-2 7-2 11-1 9-2 19-4 28-3 15-36 21-49 16-18-8-15-21-15-42-6 4-13 7-20 8-35 4-16-21-78-37-1 0 5-5 13-13-23-10-40-29-51-53-3-7-6-15-10-22-21-36-20-77-16-116 0-2 1-3 1-4-28 6-55 12-81 21-3 1-6 4-9 1-1-51-1-104 29-161 46-91 152-118 245-52 5 3 14 10 14 10l42 6-9 13c0 0-196 0-272 103 117-88 268-93 268-93 0 0-6 9-10 17-38 62-84 100-140 114-18 4-36 9-54 14-7 27-7 56-2 84 3 18 12 34 19 50 8 21 21 37 38 48 4 4 10 7 15 9 15-10 31-19 45-21 2-8 6-19-1-48-1-2 48 20 57 41 1-6 3-10 7-15 16-22 19 3 60-24 1-1-1 21-7 41 18-3 13 15 57 16 1 0-5 9-13 17 6-2 13-4 20-10 13-13 28-24 41-36 9-6 14-14 17-24 1-4 3-9 5-13 12-22 10-46 8-70-2-34-15-64-30-93-1-2-1-3-2-4-19-19-35-42-59-56-19-12-60-27-60-27l18-29c0 0 11 2 24 9 10 5 22 11 32 18 9 5 18 11 25 17 13 12 23 25 35 36 9 10 17 22 22 36 17 39 24 81 24 125-1 16-2 29-8 41z m-218 90c0 0-5 9-13 19-6 19 1 31 20 43 4 2 6-31 11-57-7-3-18-7-18-5z"/>
<glyph glyph-name="essencia-natural-2" unicode="&#34;" d="M468 23c-9 2-42 10-40 23 8 39 49 131-51 269-75 105-184 71-267 188-3 4-8 10-13 9-12-25-24-50-33-76-20-53-33-109-28-180 13-164 156-276 342-245 9 2 21 6 29 6 11-1 22-9 33-12 12-4 23-8 36-7-5 7-6 17-8 25z m-55 16c0 0-34 30-50 40-55 9-118-6-157-20 35 20 74 35 131 31 5 2 8 8 7 11-7 12-36 29-44 39-44 12-93 7-129-5 32 16 69 25 120 20 4-4-28 24-41 38-25 29-86 15-123 8 27 13 69 19 107 11-5 8-13 14-22 20l-7 6c-33 21-79 34-132 27 21 9 83 14 111 9-16 49-41 107-51 117 4 0 27-34 27-34 17-18 27-44 31-50-1 30 2 64 13 84-13-52-5-99 13-134l5-8c6-9 11-17 18-24-3 40 6 81 22 106-11-36-22-93-7-127 8-19 39-45 36-40 0 51 13 87 32 118-15-35-25-91-17-136 9-9 23-22 33-29 3-2 8-10 11-5 2 56 21 94 44 126-19-38-33-83-30-139 8-6 49-58 49-58z"/>
<glyph glyph-name="essencia-oriental-2" unicode="&#35;" d="M139 257c7 25-31 76-61 64 7-24 23-46 61-64z m-85 5c32-20 59-24 84-18-32 22-62 37-84 18z m97 250c7-32 27-80 57-69-12 31-26 58-57 69z m63-34c6-53 8-104 0-155l34 0c-7 54-5 100 0 155z m148-6c-16-26-54-60-40-98 14 30 53 62 40 98z m57-104c-13 11-51-2-63 12 43 9 67 36 92 63-59-10-96-41-126-81 30-8 75-8 97 6z m-148 47c6-42 9-92 0-132l40 0c-10 34-8 96 0 132z m-57-98c4-54 9-102 0-155l34 0c-10 54-2 100 0 155z m57-40c4-45 10-95 0-138l40 0c-11 37-6 99 0 138z m-57-126c6-53 8-104 0-155l34 0c-7 54-5 100 0 155z m57-17c4-44 10-95 0-138l40 0c-11 37-6 100 0 138z m-135 86c13-23 2-71 6-104l28 0c-4 41-7 74 6 109-12-3-37 7-40-5z m29-110c-6-17-27 13-28-12 13-22 2-70 6-103l28 0c-10 44 7 78-6 115z m-108 110c13-23 2-71 6-104l29 0c-5 41-8 74 4 109-11-3-37 7-39-5z m29-110c-7-17-28 13-29-12 13-22 2-70 6-103l29 0c-10 44 6 78-6 115z m269 110c13-23 2-71 6-104l29 0c-4 41-7 74 6 109-13-3-39 7-41-5z m29-110c-7-17-28 13-29-12 13-22 2-70 6-103l29 0c-10 44 7 78-6 115z m62 166c-22-6-38-17-41-44 26-4 63 23 41 44z m-67 16c-8-21-3-41 13-58 9 22 13 43-13 58z"/>
<glyph glyph-name="single" unicode="&#36;" d="M496 258l-340 0c2 7 3 14 3 21 0 26-32 43-52 43l-64 0c-8 0-15-2-22-6l0 80c0 5-4 10-10 10-6 0-11-4-11-10l0-274c0-6 4-11 11-11 6 0 10 4 10 11l0 52 464 0 0-43c0-5 5-10 11-10 5 0 11 4 11 10l0 116c0 6-6 11-11 11z m-453 42l63 0c12 0 32-11 32-22 0-21-7-21-11-21l-84 0c-12 0-22 10-22 21 0 12 10 22 22 22z m442-106l-464 0 0 43 464 0z"/>
<glyph glyph-name="suites" unicode="&#37;" d="M440 318c-18 0-33-7-44-18l0 58c0 39-32 70-70 70l-134 0c-38 0-70-31-70-70l0-59c-11 11-27 18-44 18-36 0-65-30-65-66 0-32 23-59 54-64l0-163 55 0 0-19c0-6 5-11 11-11 5 0 10 5 10 11l0 19 233 0 0-19c0-6 5-11 10-11 6 0 11 5 11 11l0 19 54 0 0 163c32 5 55 32 55 64-1 38-30 67-66 67z m-319-271l-34 0 0 161-10 0c-25 0-44 20-44 45 0 24 19 44 44 44 24 0 44-20 44-44z m254 0l-233 0 0 97 233 0z m0 118l-233 0 0 193c0 28 22 50 50 50l134 0c28 0 50-22 50-50l0-193z m65 43l-11 0 0-161-33 0 0 206c0 24 19 44 44 44 24 0 44-20 44-44 0-25-20-45-44-45z m-7 260c1 0 3-1 6-1-4 0-7-2-11-4l-24-14 6-9 24 14c4 2 6 3 7 6-1-2-1-4-1-5 0-1 0-4 0-5l0-28 13 0 0 28c0 4-2 7-3 11 1-1 3-3 4-4 1-1 2-2 4-3l25-14 6 10-25 14c-1 1-3 3-4 3-2 0-4 0-6 1 1 0 3 0 4 1 2 1 4 1 5 2l25 14-6 11-25-14c-1-1-3-3-4-4-2-1-3-2-4-3 1 2 2 6 2 10l0 28-12 0 0-28c0-2 0-3 0-6 0-1 1-3 2-4-2 3-5 6-8 7l-23 14-6-11 24-14c1-1 4-2 5-3z"/>
<glyph glyph-name="unidadesadaptadas" unicode="&#38;" d="M302 72c-25-25-60-40-96-40-75 0-135 61-135 135 0 36 13 71 40 96 7 7 7 18 0 25-7 7-18 7-25 0-32-32-50-76-50-122 0-94 77-172 172-172 45 0 88 18 121 50 7 7 7 18 0 25-8 10-20 10-27 3z m150 39l-51 0-32 88c-2 7-9 13-16 13l-134 0 0 81 124 0c10 0 18 9 18 18 0 10-8 18-18 18l-124 0 0 56c0 9-9 18-18 18-10 0-18-9-18-18l0-191c0-10 8-18 18-18l139 0 32-89c3-7 10-12 17-12l63 0c10 0 18 8 18 18 0 9-6 18-18 18z m-250 314c24 0 43 19 43 44 0 24-19 44-44 44-25 0-43-20-43-44 0-25 19-44 44-44z"/>
<glyph glyph-name="bt-outras-detalhes" unicode="&#39;" d="M512 276l-236 0 0 236-40 0 0-236-236 0 0-40 236 0 0-236 40 0 0 236 236 0z"/>
<glyph glyph-name="bt-outras-reservar" unicode="&#40;" d="M19 96l458 0c9 0 19 16 19 26-3 156-90 281-224 291-6-26 0 67 0 67l35 0c7 0 10 10 10 16 0 6-3 16-10 16l-115 0c-6 0-10-6-10-13 0-6 7-16 13-16l42-3c0 0 0-86-3-70-132-7-234-135-234-288 3-7 3-26 19-26z m227 285c122 0 208-109 215-253l-426 0c3 144 90 253 211 253z m-67-87c0 0-45-12-70-76-3-7 0-13 6-13 0 0 3 0 3 0 4 0 10 3 10 6 22 51 54 64 54 64 7 3 10 7 7 13 3 3-3 6-10 6z m301-259l-467 0c-7 0-13-3-13-16 0-6 6-16 13-16l464 0c13 0 22 0 22 19 0 10-13 13-19 13z"/>
<glyph glyph-name="bt-reservar-2" unicode="&#41;" d="M488 20l-476 0c-7 0-12-5-12-13 0-7 5-12 12-12l476 0c7 0 12 5 12 12 0 8-5 13-12 13z m-476 87l476 0c4 0 12 5 12 10 0 156-105 285-239 290 0 0 0 3 0 3l0 80 44 0c7 0 12 5 12 12 0 8-5 10-12 10l-108 0c-7 0-12-5-12-10 0-5 5-12 12-12l44 0 0-78c0 0 0-2 0-2-134-8-239-134-239-291 0-7 5-12 10-12z m239 281c122 0 222-115 227-259l-454 0c5 144 105 259 227 259z m-68-88c-3 0-44-12-71-76-2-5 0-12 5-14 2 0 2 0 5 0 5 0 7 2 10 7 22 51 56 63 58 63 5 0 7 8 7 13-2 7-7 9-14 7z"/>
<glyph glyph-name="bt-seta-1" unicode="&#42;" d="M375 406c-6 7-17 7-20 0-7-7-7-17 0-20l109-113-447 0c-10 0-17-7-17-17 0-10 7-17 17-17l447 0-112-113c-7-7-7-17 0-20 6-4 17-4 23 3l137 137c7 7 7 17 0 20z"/>
<glyph glyph-name="bt-seta-naveg-slider" unicode="&#43;" d="M128-5l0 21 235 238-235 237 0 21 256-258z"/>
<glyph glyph-name="caracteristicas-camas" unicode="&#44;" d="M498 259l-342 0c2 7 3 14 3 21 0 26-31 42-52 42l-64 0c-7 0-15-2-21-5l0 80c0 6-5 10-10 10-6 0-11-4-11-10l0-276c0-6 5-10 11-10 5 0 10 4 10 10l0 52 466 0 0-42c0-5 4-10 10-10 6 0 11 5 11 10l0 117c0 7-5 11-11 11z m-455 42l64 0c13 0 31-11 31-21 0-21-5-21-10-21l-85 0c-12 0-21 10-21 21-1 12 9 21 21 21z m445-106l-466 0 0 42 466 0z"/>
<glyph glyph-name="caracteristicas-capacidade" unicode="&#45;" d="M475 203l-53 26c-2 1-4 3-4 6l0 15c2 2 2 3 3 5 13 19 23 52 24 88 4 35-1 64-11 74-13 14-33 21-60 21-27 0-47-7-60-21-10-10-17-39-17-70 0-21 5-61 24-95l0-16c0-3-1-4-2-6l-49-27c-5-2-11-7-15-12l-10 7c-6 3-9 7-9 12l0 25c2 1 3 4 4 5 17 27 30 71 33 120 3 45-4 82-17 97-17 18-43 28-78 28-36 0-61-10-78-28-13-15-22-52-20-93 0-28 5-82 34-129l0-23c0-6-3-10-7-13l-67-37c-23-13-39-37-39-64l0-24c0-48 160-50 178-50 19 0 178 2 178 50l0 23c10 0 17 0 17 0 31 0 134 3 134 40l0 17c-2 21-13 39-33 49z m-337 7l0 33-3 3c-1 1-27 30-30 101 0 21 0 77 13 92 13 13 33 20 60 20 28 0 48-7 60-20 17-17 11-81 11-81 0-1-7-76-29-102-2-3-4-6-5-7l-3-3 0-33c0-15 8-28 23-35l71-36c15-8 27-24 27-42l0-23c-2-2-10-9-37-14-22-6-60-12-117-12-57 0-94 6-116 12-27 5-36 12-37 14l0 24c0 17 10 34 25 41l66 34c12 7 21 20 21 34z m343-72c-7-4-43-16-107-16-7 0-16 0-23 0-7 17-18 32-35 39l-36 18c2 0 2 2 3 2l48 27c10 5 17 17 17 28l0 24-2 5c-2 1-19 21-20 71-2 17 0 54 8 64 7 8 22 12 40 12 19 0 33-4 40-12 8-9 8-39 7-57 0 0-6-56-20-73-1-1-3-4-4-5l-3-5 0-25c0-13 7-25 18-30l53-26c10-5 17-15 17-27l0-14z"/>
<glyph glyph-name="caracteristicas-pequenoalmoco" unicode="&#46;" d="M378 135c13-11 32-19 51-19 42 0 76 34 76 76 0 41-34 76-76 76-8 0-16-2-24-5l0 39c0 10-7 17-17 17l-340 0c-10 0-17-8-17-17l0-69c0-38 12-74 32-106 8-13 20-26 31-38l-76 0c-10 0-16-8-16-16 0-10 8-17 16-17l30 0c5-33 31-56 64-56l212 0c33 0 59 23 64 56l32 0c9 0 16 8 16 17 0 10-8 16-16 16l-76 0c11 12 23 23 31 38 0 3 2 7 3 8z m27 91c6 5 16 9 24 9 24 0 43-20 43-43 0-24-19-43-43-43-14 0-28 8-36 19 7 20 10 38 12 58z m-52-170c-5-13-16-23-31-23l-210 0c-15 0-26 8-31 23z m19 179c0-60-33-116-85-144l-137 0c-51 28-86 84-86 144l0 51 308 0z m-199 123c4-3 7-3 10-3 5 0 10 2 14 7 6 6 4 16-2 23l-8 6c-4 4-5 7-5 10 0 4 1 9 5 10 11 9 18 22 18 37 0 14-5 28-17 36-6 7-18 7-23-2-6-6-5-16 2-23 5-3 5-8 5-10 0-1 0-6-5-10-12-10-18-23-18-36 0-15 6-28 18-36z m73 7c3-3 7-3 10-3 5 0 10 1 13 6 7 7 7 17-1 23l-10 9c-4 3-7 8-7 13 0 5 3 11 7 15 13 10 19 25 19 39 0 17-6 32-18 42-6 6-18 5-23-2-6-7-5-18 2-23 5-3 6-8 6-15 0-5-3-10-6-15-12-10-20-25-20-39 0-17 7-32 20-42z"/>
<glyph glyph-name="caracteristicas-unidadeadaptada" unicode="&#47;" d="M304 72c-25-24-60-38-96-38-74 0-136 60-136 135 0 38 15 71 39 96 7 7 7 17 0 25-7 7-17 7-24 0-32-32-50-76-50-122 0-96 78-172 171-172 46 0 89 18 122 50 7 7 7 18 0 25-7 7-19 8-26 1z m150 39l-51 0-32 89c-2 7-9 12-18 12l-132 0 0 81 123 0c11 0 18 9 18 18 0 10-9 17-18 17l-123 0 0 57c0 10-9 18-18 18-9 0-18-9-18-18l0-191c0-10 9-17 18-17l140 0 31-89c2-7 9-12 18-12l64 0c10 0 17 9 17 18-2 8-9 17-19 17z m-251 314c25 0 44 20 44 45 0 24-19 44-44 44-25 0-44-21-44-44 0-25 19-45 44-45z"/>
</font>
</defs>
</svg>
